STARTFONT 2.1
FONT -Monotype-Nimrod-Regular-R-Normal--50-360-100-100-P-311-iso8859-5
SIZE 36 100 100
FONTBOUNDINGBOX 60 60 -4 -13

STARTPROPERTIES 24
FOUNDRY "Monotype"
FAMILY_NAME "Nimrod"
WEIGHT_NAME "Regular"
SLANT "R"
SETWIDTH_NAME "Normal"
ADD_STYLE_NAME ""
PIXEL_SIZE 50
POINT_SIZE 360
RESOLUTION_X 100
RESOLUTION_Y 100
SPACING "P"
AVERAGE_WIDTH 311
CHARSET_REGISTRY "iso8859"
CHARSET_ENCODING "5"
FACE_NAME "Nimrod ISO Latin Cyrillic"
_DEC_DEVICE_FONTNAMES "PS=nimrod-latcyrillic"
COPYRIGHT "Copyright (c) 1993 Monotype Typography Ltd."
CAP_HEIGHT 46
X_HEIGHT 33
WEIGHT 10
QUAD_WIDTH 34
DEFAULT_CHAR 160
FONT_DESCENT 14
FONT_ASCENT 49
ENDPROPERTIES

CHARS 191

STARTCHAR space
ENCODING 32
SWIDTH 250 0
DWIDTH 13 0
BBX 0 0 0 0
BITMAP
ENDCHAR

STARTCHAR exclam
ENCODING 33
SWIDTH 281 0
DWIDTH 14 0
BBX 9 38 3 -1
BITMAP
3E00
3E00
7F00
7F00
7F00
7F00
3F00
3E00
3E00
3E00
3E00
3E00
3E00
3C00
3C00
1C00
1C00
1C00
1C00
1800
1800
1800
1800
1800
1800
1800
0000
0000
0000
0000
0000
1C00
3E00
7F00
7F00
7F00
3E00
1C00
ENDCHAR

STARTCHAR quotedbl
ENCODING 34
SWIDTH 406 0
DWIDTH 20 0
BBX 17 14 2 20
BITMAP
381C00
7C3E00
7C3E00
7C3E00
7C3E00
7C3E00
783E00
381C00
381C00
381C00
381C00
381C00
100C00
100800
ENDCHAR

STARTCHAR numbersign
ENCODING 35
SWIDTH 667 0
DWIDTH 33 0
BBX 32 35 1 -1
BITMAP
001C0060
001C00E0
001800E0
001800E0
001800C0
003800C0
003801C0
003001C0
00300180
00300180
7FFFFFFC
7FFFFFFC
7FFFFFFC
00600300
00E00300
00E00300
00E00700
00C00700
00C00600
01C00600
01C00600
01800E00
7FFFFFFC
7FFFFFFC
7FFFFFFC
03800C00
03001C00
03001C00
03001800
07001800
07003800
06003800
06003800
0E003000
0E003000
ENDCHAR

STARTCHAR dollar
ENCODING 36
SWIDTH 500 0
DWIDTH 25 0
BBX 25 45 1 -7
BITMAP
00180000
00180000
00180000
00FF8000
03FFE000
0798F000
0F187800
1E183800
1C183C00
3C183C00
3C187C00
3C187C00
3C187C00
3E187800
3F180000
1F980000
1FF80000
0FF80000
07FE0000
03FF8000
01FFC000
007FE000
001FF800
001FF800
0019FC00
00187C00
1C183E00
3E183E00
7E181E00
7E181E00
7E181E00
7C181E00
78181E00
38183C00
3C183C00
1E18F800
0FDBF000
07FFC000
00FE0000
00180000
00180000
00180000
00180000
00180000
00180000
ENDCHAR

STARTCHAR percent
ENCODING 37
SWIDTH 1000 0
DWIDTH 50 0
BBX 40 37 5 -2
BITMAP
01E0000600
07F8000C00
0E1C000C00
1E1E001800
1C0E001800
1C0F003000
3C0F002000
3C0F006000
3C0F00C000
3C0F00C000
3C0F018000
3C0F018000
3C0F030000
1C0F030000
1E0E060000
1E1E060000
0E1C0C0000
07F8180780
01E0181FE0
0000303870
0000307878
0000607038
000060703C
0000C0F03C
0000C0F03C
000180F03C
000100F03C
000300F03C
000600F03C
000600F03C
000C00703C
000C007038
0018007878
0018003870
0030001FE0
0020000780
0060000000
ENDCHAR

STARTCHAR ampersand
ENCODING 38
SWIDTH 781 0
DWIDTH 39 0
BBX 38 39 1 -1
BITMAP
0007F00000
001FFC0000
003E3E0000
00781E0000
00780F0000
00F00F0000
00F00F0000
00F00F0000
00F00F0000
00F00E0000
00F81E0000
00F81C0000
00F83C0000
007C780000
007DF00000
007FC00000
003F800000
007F000000
01FF01FFF0
03FF81FFF0
078F803FC0
0F0FC01F00
1E07C00E00
3E07E00E00
3C03F01C00
3C01F01C00
7C01F83800
7C00FC3800
7C00FC7000
7E007E6000
7E003FE038
7E001FC038
3F001FC030
3F800FE070
1FC01FF8F0
0FF07FFFE0
07FFF1FFE0
03FFE07FC0
007F003F00
ENDCHAR

STARTCHAR quoteright
ENCODING 39
SWIDTH 281 0
DWIDTH 14 0
BBX 11 14 2 24
BITMAP
0E00
1F00
3F80
3F80
3F80
1F80
0F80
0380
0300
0700
0600
1C00
3800
3000
ENDCHAR

STARTCHAR parenleft
ENCODING 40
SWIDTH 354 0
DWIDTH 18 0
BBX 18 46 0 -8
BITMAP
000300
000700
000E00
001C00
003800
007000
00F000
00E000
01E000
03C000
03C000
078000
0F8000
0F0000
0F0000
1F0000
1F0000
1F0000
3E0000
3E0000
3E0000
3E0000
3E0000
3E0000
3E0000
3E0000
3E0000
3E0000
1F0000
1F0000
1F0000
1F0000
0F0000
0F8000
078000
078000
03C000
01C000
01E000
00F000
007000
003800
001C00
000E00
000700
000300
ENDCHAR

STARTCHAR parenright
ENCODING 41
SWIDTH 354 0
DWIDTH 18 0
BBX 18 46 0 -8
BITMAP
300000
380000
1C0000
0E0000
070000
038000
03C000
01E000
01E000
00F000
00F800
007800
007C00
003C00
003E00
003E00
003E00
003F00
001F00
001F00
001F00
001F00
001F00
001F00
001F00
001F00
001F00
001F00
001F00
003E00
003E00
003E00
003C00
007C00
007800
007800
00F000
00E000
01E000
01C000
038000
070000
0E0000
0C0000
180000
300000
ENDCHAR

STARTCHAR asterisk
ENCODING 42
SWIDTH 469 0
DWIDTH 23 0
BBX 23 20 0 18
BITMAP
001800
007C00
007C00
007C00
007C00
003800
3C3878
3E38FC
7F93FC
3FD7F8
1FFFF0
003800
006C00
00EE00
03C780
07C7C0
0FC7E0
0FC3E0
0783C0
0701C0
ENDCHAR

STARTCHAR plus
ENCODING 43
SWIDTH 667 0
DWIDTH 33 0
BBX 29 27 2 3
BITMAP
00070000
00070000
00070000
00070000
00070000
00070000
00070000
00070000
00070000
00070000
00070000
00070000
7FFFFFF0
7FFFFFF0
7FFFFFF0
00070000
00070000
00070000
00070000
00070000
00070000
00070000
00070000
00070000
00070000
00070000
00070000
ENDCHAR

STARTCHAR comma
ENCODING 44
SWIDTH 281 0
DWIDTH 14 0
BBX 11 14 2 -8
BITMAP
0E00
1F00
3F80
3F80
3F80
1F80
0F80
0380
0300
0700
0600
0C00
3800
3000
ENDCHAR

STARTCHAR minus
ENCODING 45
SWIDTH 667 0
DWIDTH 33 0
BBX 29 3 2 15
BITMAP
7FFFFFF0
7FFFFFF0
7FFFFFF0
ENDCHAR

STARTCHAR period
ENCODING 46
SWIDTH 281 0
DWIDTH 14 0
BBX 9 7 3 -1
BITMAP
1C00
3E00
7F00
7F00
7F00
3E00
1C00
ENDCHAR

STARTCHAR slash
ENCODING 47
SWIDTH 510 0
DWIDTH 26 0
BBX 26 42 0 -1
BITMAP
00000700
00000700
00000E00
00000E00
00000C00
00001C00
00001800
00003800
00003000
00007000
00006000
0000E000
0000C000
0001C000
00018000
00038000
00030000
00070000
00060000
000E0000
000C0000
001C0000
00180000
00380000
00300000
00700000
00600000
00E00000
00E00000
01C00000
01C00000
03800000
03800000
07000000
07000000
0E000000
0E000000
1C000000
1C000000
18000000
38000000
30000000
ENDCHAR

STARTCHAR zero
ENCODING 48
SWIDTH 500 0
DWIDTH 25 0
BBX 26 36 0 -1
BITMAP
003F8000
00FFC000
01E1E000
03C0F000
07807800
0F007C00
0F003C00
0F003E00
1F003E00
1F001E00
1E001E00
3E001F00
3E001F00
3E001F00
3E001F00
3E001F00
3E001F00
3E001F00
3E001F00
3E001F00
3E001F00
3E001F00
3E001F00
3E001F00
3E001F00
1F001E00
1F001E00
1F003E00
0F003E00
0F003C00
07807C00
07807800
03C0F000
01E1E000
00FFC000
003F0000
ENDCHAR

STARTCHAR one
ENCODING 49
SWIDTH 500 0
DWIDTH 25 0
BBX 22 35 1 0
BITMAP
000C00
003C00
01FC00
3FFC00
3FFC00
00FC00
007C00
007C00
007C00
007C00
007C00
007C00
007C00
007C00
007C00
007C00
007C00
007C00
007C00
007C00
007C00
007C00
007C00
007C00
007C00
007C00
007C00
007C00
007C00
007C00
007C00
007C00
00FE00
1FFFF8
1FFFF8
ENDCHAR

STARTCHAR two
ENCODING 50
SWIDTH 500 0
DWIDTH 25 0
BBX 25 35 0 0
BITMAP
003E0000
01FFC000
07FFF000
0F01F800
1E00FC00
1C007C00
3C007E00
3E003E00
3F003E00
3F003E00
3F003E00
3F003E00
1F007E00
0E007C00
00007C00
0000F800
0001F800
0001F000
0003E000
0007C000
000F8000
001F0000
003E0000
003C0000
00700000
00E00300
01C00700
03800700
07000700
0E000E00
1C001E00
3FFFFE00
7FFFFE00
7FFFFE00
7FFFFE00
ENDCHAR

STARTCHAR three
ENCODING 51
SWIDTH 500 0
DWIDTH 25 0
BBX 26 36 -1 -1
BITMAP
007F8000
01FFE000
07C3F000
0F00F800
0E007C00
1E007C00
1F003E00
1F003E00
1F003E00
1F003E00
0F003E00
00003C00
00003C00
00007800
0000F000
0001E000
00FF8000
00FFE000
0001F000
00007C00
00003C00
00003E00
00003F00
00001F00
1E001F00
3F001F00
3F001F00
3F001F00
3E001F00
3E003F00
3C003E00
1C003C00
0E007C00
07C1F800
03FFE000
00FF8000
ENDCHAR

STARTCHAR four
ENCODING 52
SWIDTH 500 0
DWIDTH 25 0
BBX 25 35 0 0
BITMAP
0001E000
0001E000
0003E000
0007E000
0007E000
000FE000
001DE000
001DE000
0039E000
0071E000
0071E000
00E1E000
00C1E000
01C1E000
0381E000
0301E000
0701E000
0E01E000
0C01E000
1C01E000
3801E000
3001E000
7001E000
7FFFFF00
7FFFFF00
7FFFFF00
0001E000
0001E000
0001E000
0001E000
0001E000
0001E000
0003F000
007FFF00
007FFF00
ENDCHAR

STARTCHAR five
ENCODING 53
SWIDTH 500 0
DWIDTH 25 0
BBX 26 36 -1 -1
BITMAP
00000E00
03FFFE00
03FFFC00
07FFFC00
07FFFC00
06000000
06000000
06000000
06000000
06000000
06000000
06000000
0E000000
0E1F0000
0EFFC000
0FFFF000
0F01F800
0E007C00
00007E00
00003E00
00003F00
00001F00
00001F00
00001F00
1E001F00
3F001F00
3F001F00
3F001F00
3E003F00
3C003E00
3C003E00
1E007C00
0E00F800
07C3F000
03FFE000
00FF0000
ENDCHAR

STARTCHAR six
ENCODING 54
SWIDTH 500 0
DWIDTH 25 0
BBX 25 36 1 -1
BITMAP
003FC000
00FFF000
01F1F800
03C07800
07807C00
0F00FC00
0F00FC00
1E00F800
1E007800
1E000000
3C000000
3C000000
3C000000
3C000000
7C1F8000
7C7FE000
7CFFF000
7DC1F800
7F80FC00
7F007C00
7E007E00
7E003E00
7E003E00
7C003E00
7C003E00
3C003E00
3C003E00
3E003E00
3E003C00
1E003C00
1E007C00
0F007800
0780F000
03E3E000
01FFC000
007F0000
ENDCHAR

STARTCHAR seven
ENCODING 55
SWIDTH 500 0
DWIDTH 25 0
BBX 25 35 0 -1
BITMAP
1FFFFF00
1FFFFF00
1FFFFE00
1FFFFE00
1E000C00
1C001C00
18001800
38003800
38003000
38007000
30006000
00006000
0000E000
0000C000
0001C000
0001C000
00038000
00038000
00078000
00078000
00070000
000F0000
000F0000
000F0000
001F0000
001F0000
001E0000
003E0000
003E0000
003E0000
003E0000
003E0000
003E0000
003E0000
001C0000
ENDCHAR

STARTCHAR eight
ENCODING 56
SWIDTH 500 0
DWIDTH 25 0
BBX 25 36 0 -1
BITMAP
00FF8000
03FFE000
07C1F000
0F80F800
1F007C00
1F007C00
3E003E00
3E003E00
3E003E00
3E003E00
3E003E00
1E003E00
1F007C00
0F007800
0780F000
03E1E000
00FF8000
01FFC000
07C3F000
0F80F800
1F007C00
1F007E00
3E003E00
3E003E00
3E003E00
3E003E00
3E003E00
3E003E00
3E003E00
1F003C00
1F007C00
0F007800
0F80F800
07E1F000
01FFC000
007F0000
ENDCHAR

STARTCHAR nine
ENCODING 57
SWIDTH 500 0
DWIDTH 25 0
BBX 26 36 -1 -1
BITMAP
007F0000
01FFC000
03E1F000
0780F800
0F807800
1F003C00
1F003C00
1E003E00
3E001E00
3E001E00
3E001F00
3E001F00
3E001F00
3E001F00
3F003F00
3F003F00
1F007F00
1F807F00
0FC1DF00
07FFDF00
03FF1F00
00FC1F00
00001F00
00001F00
00001E00
00001E00
00001E00
0F003C00
1F003C00
1F803C00
1F007800
1F00F000
0F01F000
0F87E000
07FF8000
01FE0000
ENDCHAR

STARTCHAR colon
ENCODING 58
SWIDTH 281 0
DWIDTH 14 0
BBX 9 29 3 -1
BITMAP
1C00
3E00
7F00
7F00
7F00
3E00
1C00
0000
0000
0000
0000
0000
0000
0000
0000
0000
0000
0000
0000
0000
0000
0000
1C00
3E00
7F00
7F00
7F00
3E00
1C00
ENDCHAR

STARTCHAR semicolon
ENCODING 59
SWIDTH 281 0
DWIDTH 14 0
BBX 11 36 2 -8
BITMAP
0E00
1F00
3F80
3F80
3F80
1F00
0E00
0000
0000
0000
0000
0000
0000
0000
0000
0000
0000
0000
0000
0000
0000
0000
0E00
1F00
3F80
3F80
3F80
1F80
0F80
0380
0300
0700
0600
0C00
3800
3000
ENDCHAR

STARTCHAR less
ENCODING 60
SWIDTH 667 0
DWIDTH 33 0
BBX 29 24 2 4
BITMAP
00000030
000001F0
000007F0
00001F80
0000FE00
0003F000
000FC000
007F0000
01F80000
0FE00000
3F000000
3C000000
3E000000
1F800000
07E00000
01FC0000
003F0000
000FE000
0003F800
00007E00
00001FC0
000007F0
000000F0
00000030
ENDCHAR

STARTCHAR equal
ENCODING 61
SWIDTH 667 0
DWIDTH 33 0
BBX 29 14 2 9
BITMAP
3FFFFFF0
3FFFFFF0
3FFFFFF0
00000000
00000000
00000000
00000000
00000000
00000000
00000000
00000000
3FFFFFF0
3FFFFFF0
3FFFFFF0
ENDCHAR

STARTCHAR greater
ENCODING 62
SWIDTH 667 0
DWIDTH 33 0
BBX 29 24 2 4
BITMAP
30000000
3C000000
3F000000
0FE00000
03F80000
007E0000
001FC000
0003F000
0000FE00
00003F80
000007E0
000001F0
000001F0
000007E0
00003F80
0000FC00
0007F000
001F8000
00FE0000
03F80000
0FC00000
3F000000
3C000000
20000000
ENDCHAR

STARTCHAR question
ENCODING 63
SWIDTH 448 0
DWIDTH 22 0
BBX 23 39 0 -1
BITMAP
00FE00
07FF80
0F07C0
1E03E0
1E01F0
3E01F8
3F00F8
3F00F8
3F00F8
3F00F8
1F00F8
0C01F8
0001F0
0001F0
0003E0
0007C0
000F80
000F00
001E00
001C00
003800
003000
003000
003000
003000
003000
002000
000000
000000
000000
000000
000000
007000
00F800
01FC00
01FC00
01FC00
00F800
007000
ENDCHAR

STARTCHAR at
ENCODING 64
SWIDTH 917 0
DWIDTH 46 0
BBX 46 46 0 -11
BITMAP
00000FFE0000
000078038000
0003C0006000
000700003800
001C00000C00
003800000600
007000000300
00E000000100
01C000000180
038000000080
0300000000C0
070001E1C040
0600071BC040
0E000C0B8060
0C00380F8060
1C00380F8060
1800700F0060
1800E00F0060
3801E00F0060
3801C00F0060
3803C00E0040
3003801E0040
3007801E00C0
3007801C00C0
3007003C0080
300F007C0180
300F007C0300
300F00B80300
380F01380600
180F03780C00
180F8E781818
1807FC787010
0C07F03FC030
0C01E01F0020
0E0000000060
0600000000C0
0300000000C0
038000000180
01C000000300
00E000000600
007000001C00
001C00003800
000E0000E000
0003C0078000
0000FFFE0000
00000FE00000
ENDCHAR

STARTCHAR A
ENCODING 65
SWIDTH 802 0
DWIDTH 40 0
BBX 42 38 -1 0
BITMAP
00000C000000
00001E000000
00001E000000
00001F000000
00003F000000
00003F800000
00007F800000
00007F800000
00006FC00000
0000E7C00000
0000E7E00000
0001C7E00000
0001C3E00000
000183F00000
000381F00000
000381F80000
000701F80000
000700F80000
000600FC0000
000E007C0000
000E007E0000
001C007E0000
001C003E0000
0018003F0000
003FFFFF0000
003FFFFF8000
007FFFFF8000
0070000F8000
0060000FC000
00E00007C000
00C00007E000
01C00007E000
01C00003E000
03C00003F000
03C00003F000
0FF00003F800
3FFF007FFF00
3FFF007FFF00
ENDCHAR

STARTCHAR B
ENCODING 66
SWIDTH 729 0
DWIDTH 36 0
BBX 36 36 0 0
BITMAP
3FFFFFC000
3FFFFFF000
03F803F800
01F000FC00
01F0007E00
01F0007E00
01F0003F00
01F0003F00
01F0003F00
01F0003F00
01F0003F00
01F0003F00
01F0003E00
01F0007E00
01F0007C00
01F000F800
01F003E000
01FFFF8000
01FFFFF000
01F001FC00
01F0007E00
01F0003F00
01F0001F80
01F0001FC0
01F0000FC0
01F0000FC0
01F0000FC0
01F0000FC0
01F0000FC0
01F0000FC0
01F0001F80
01F0001F80
01F0007F00
03F800FE00
3FFFFFF800
3FFFFFC000
ENDCHAR

STARTCHAR C
ENCODING 67
SWIDTH 719 0
DWIDTH 36 0
BBX 35 39 1 -1
BITMAP
0000FF0000
0007FFF000
001FFFFC00
007E01FE00
00F8007E00
01F0003E00
03E0001F00
07E0000F00
07C0000F00
0FC0000700
0FC0000700
1F80000300
1F80000300
1F80000000
3F80000000
3F00000000
3F00000000
3F00000000
3F00000000
3F00000000
3F00000000
3F00000000
3F00000000
3F00000000
3F00000000
1F80000180
1F80000180
1F80000180
0F80000380
0FC0000300
07C0000700
07E0000700
03F0000E00
01F8001C00
00FC003800
007F01F000
001FFFE000
000FFF8000
0000FC0000
ENDCHAR

STARTCHAR D
ENCODING 68
SWIDTH 771 0
DWIDTH 39 0
BBX 38 36 0 0
BITMAP
3FFFFF0000
3FFFFFE000
03F807F800
01F000FC00
01F0007E00
01F0001F00
01F0001F80
01F0000FC0
01F0000FC0
01F00007E0
01F00007E0
01F00007E0
01F00007F0
01F00003F0
01F00003F0
01F00003F0
01F00003F0
01F00003F0
01F00003F0
01F00003F0
01F00003F0
01F00003F0
01F00003F0
01F00003F0
01F00007E0
01F00007E0
01F00007E0
01F00007C0
01F0000FC0
01F0000F80
01F0001F00
01F0003E00
01F000FC00
03F803F800
3FFFFFE000
3FFFFF8000
ENDCHAR

STARTCHAR E
ENCODING 69
SWIDTH 719 0
DWIDTH 36 0
BBX 35 36 0 0
BITMAP
3FFFFFFE00
3FFFFFFF00
03F800FF00
01F0003F00
01F0001F00
01F0000F00
01F0000F00
01F0000700
01F0000700
01F0060700
01F0060300
01F0060300
01F00E0000
01F00E0000
01F01E0000
01F03E0000
01FFFE0000
01FFFE0000
01F07E0000
01F01E0000
01F00E0000
01F00E0000
01F0060180
01F0060180
01F0060180
01F0060380
01F0000380
01F0000380
01F0000780
01F0000780
01F0000F80
01F0001F80
01F0003F80
03F801FF80
3FFFFFFF80
3FFFFFFF80
ENDCHAR

STARTCHAR F
ENCODING 70
SWIDTH 667 0
DWIDTH 33 0
BBX 34 36 1 0
BITMAP
3FFFFFFF00
3FFFFFFF00
03F800FF00
01F0003F00
01F0001F00
01F0000F00
01F0000700
01F0000700
01F0000700
01F0060300
01F0060300
01F0060300
01F00E0000
01F00E0000
01F01E0000
01F03E0000
01FFFE0000
01FFFE0000
01F07E0000
01F01E0000
01F00E0000
01F00E0000
01F0060000
01F0060000
01F0060000
01F0060000
01F0000000
01F0000000
01F0000000
01F0000000
01F0000000
01F0000000
01F0000000
03F8000000
3FFFE00000
3FFFE00000
ENDCHAR

STARTCHAR G
ENCODING 71
SWIDTH 792 0
DWIDTH 40 0
BBX 39 39 1 -1
BITMAP
00007F0000
0007FFF800
001FFFFF00
007F00FF00
00FC003F00
01F8001F00
03F0000F80
03E0000780
07C0000780
0FC0000380
0F80000380
1F80000180
1F800001C0
1F80000000
3F80000000
3F00000000
3F00000000
3F00000000
3F00000000
3F00000000
3F00000000
3F0003FFFC
3F0003FFFC
3F00001FC0
3F80000F80
1F80000F80
1F80000F80
1F80000F80
0F80000F80
0FC0000F80
07C0000F80
07E0000F80
03F0000F80
01F8000F80
00FC001F80
007F007F00
001FFFFC00
0007FFF000
00007E0000
ENDCHAR

STARTCHAR H
ENCODING 72
SWIDTH 813 0
DWIDTH 41 0
BBX 41 36 0 0
BITMAP
3FFF80FFFE00
3FFF80FFFE00
03F8000FE000
01F00007C000
01F00007C000
01F00007C000
01F00007C000
01F00007C000
01F00007C000
01F00007C000
01F00007C000
01F00007C000
01F00007C000
01F00007C000
01F00007C000
01F00007C000
01FFFFFFC000
01FFFFFFC000
01FFFFFFC000
01F00007C000
01F00007C000
01F00007C000
01F00007C000
01F00007C000
01F00007C000
01F00007C000
01F00007C000
01F00007C000
01F00007C000
01F00007C000
01F00007C000
01F00007C000
01F00007C000
03F8000FE000
3FFF80FFFE00
3FFF80FFFE00
ENDCHAR

STARTCHAR I
ENCODING 73
SWIDTH 385 0
DWIDTH 19 0
BBX 19 36 0 0
BITMAP
7FFFC0
7FFFC0
03F800
01F000
01F000
01F000
01F000
01F000
01F000
01F000
01F000
01F000
01F000
01F000
01F000
01F000
01F000
01F000
01F000
01F000
01F000
01F000
01F000
01F000
01F000
01F000
01F000
01F000
01F000
01F000
01F000
01F000
01F000
03F800
7FFFC0
7FFFC0
ENDCHAR

STARTCHAR J
ENCODING 74
SWIDTH 573 0
DWIDTH 29 0
BBX 29 37 0 -1
BITMAP
001FFFE0
001FFFE0
0000FE00
00007C00
00007C00
00007C00
00007C00
00007C00
00007C00
00007C00
00007C00
00007C00
00007C00
00007C00
00007C00
00007C00
00007C00
00007C00
00007C00
00007C00
00007C00
00007C00
00007C00
1E007C00
3F007C00
3F007C00
7F007C00
7F007C00
7E007C00
7E007C00
3C00FC00
3C00F800
1C01F800
1F03F000
0FFFE000
03FF8000
007C0000
ENDCHAR

STARTCHAR K
ENCODING 75
SWIDTH 781 0
DWIDTH 39 0
BBX 41 36 0 0
BITMAP
3FFF83FFF800
3FFF83FFF800
03F8003FE000
01F0001F8000
01F0001E0000
01F0003C0000
01F000380000
01F000700000
01F000E00000
01F001C00000
01F003800000
01F007000000
01F00E000000
01F01C000000
01F03C000000
01F07C000000
01F0FE000000
01F1FF000000
01F39F800000
01F71F800000
01FE0FC00000
01FE07E00000
01FC07E00000
01F803F00000
01F001F80000
01F001F80000
01F000FC0000
01F0007E0000
01F0007E0000
01F0003F0000
01F0001F8000
01F0000FC000
01F0000FC000
03F8001FF000
3FFF81FFFE00
3FFF81FFFE00
ENDCHAR

STARTCHAR L
ENCODING 76
SWIDTH 677 0
DWIDTH 34 0
BBX 34 36 0 0
BITMAP
3FFFE00000
3FFFE00000
03F8000000
01F0000000
01F0000000
01F0000000
01F0000000
01F0000000
01F0000000
01F0000000
01F0000000
01F0000000
01F0000000
01F0000000
01F0000000
01F0000000
01F0000000
01F0000000
01F0000000
01F0000000
01F0000000
01F0000000
01F0000180
01F0000380
01F0000380
01F0000380
01F0000380
01F0000780
01F0000780
01F0000F00
01F0000F00
01F0001F00
01F0003F00
03F800FF00
3FFFFFFF00
3FFFFFFF00
ENDCHAR

STARTCHAR M
ENCODING 77
SWIDTH 979 0
DWIDTH 49 0
BBX 49 36 0 0
BITMAP
7FFC00001FFE00
7FFC00003FFE00
03FC00003FE000
03FE000037C000
03BE000077C000
03BF000077C000
039F000067C000
039F0000E7C000
039F8000C7C000
038F8001C7C000
038FC001C7C000
0387C00187C000
0387C00387C000
0387E00387C000
0383E00307C000
0383F00707C000
0381F00607C000
0381F00E07C000
0381F80E07C000
0380F80C07C000
0380FC1C07C000
03807C1C07C000
03807C1807C000
03807E3807C000
03803E3007C000
03803F7007C000
03801F7007C000
03801F6007C000
03801FE007C000
03800FE007C000
03800FC007C000
038007C007C000
07C0078007C000
0FF007800FE000
7FFC0380FFFE00
7FFC0300FFFE00
ENDCHAR

STARTCHAR N
ENCODING 78
SWIDTH 823 0
DWIDTH 41 0
BBX 43 37 0 -1
BITMAP
3FF0003FFF80
3FF8003FFF80
03F80003FE00
01FC0000F800
01FE00007800
01FF00007000
01FF00007000
01DF80007000
01CFC0007000
01CFE0007000
01C7F0007000
01C3F0007000
01C1F8007000
01C1FC007000
01C0FE007000
01C07E007000
01C03F007000
01C01F807000
01C01FC07000
01C00FC07000
01C007E07000
01C003F07000
01C003F87000
01C001F87000
01C000FC7000
01C0007E7000
01C0007F7000
01C0003F7000
01C0001FF000
01C0000FF000
01C0000FF000
01C00007F000
03E00003F000
07F80001F000
3FFF8001F000
3FFF8000F000
000000007000
ENDCHAR

STARTCHAR O
ENCODING 79
SWIDTH 792 0
DWIDTH 40 0
BBX 38 39 1 -1
BITMAP
0000FC0000
000FFFC000
003FFFF000
007E01F800
00F8007C00
01F0003E00
03E0001F00
07E0001F80
07C0000FC0
0FC0000FC0
0F800007E0
1F800007E0
1F800007E0
1F800007F0
3F000003F0
3F000003F0
3F000003F0
3F000003F0
3F000003F0
3F000003F0
3F000003F0
3F000003F0
3F000003F0
3F000003F0
3F800003F0
1F800007E0
1F800007E0
1F800007E0
0F800007C0
0FC0000FC0
07C0000F80
07E0001F80
03E0001F00
01F0003E00
00F8007C00
007E01F800
003FFFF000
000FFFC000
0000FE0000
ENDCHAR

STARTCHAR P
ENCODING 80
SWIDTH 667 0
DWIDTH 33 0
BBX 34 36 0 0
BITMAP
3FFFFF8000
3FFFFFE000
03F807F800
01F001FC00
01F000FE00
01F0007E00
01F0007F00
01F0003F00
01F0003F00
01F0003F00
01F0003F00
01F0003F00
01F0003F00
01F0007F00
01F0007E00
01F000FC00
01F001FC00
01F007F800
01FFFFE000
01FFFF0000
01F0000000
01F0000000
01F0000000
01F0000000
01F0000000
01F0000000
01F0000000
01F0000000
01F0000000
01F0000000
01F0000000
01F0000000
01F0000000
03F8000000
3FFFE00000
3FFFE00000
ENDCHAR

STARTCHAR Q
ENCODING 81
SWIDTH 792 0
DWIDTH 40 0
BBX 42 44 1 -6
BITMAP
0000FC000000
000FFFC00000
003FFFF00000
007E01F80000
00F8007C0000
01F0003E0000
03E0001F0000
07E0001F8000
07C0000FC000
0FC0000FC000
0F800007E000
1F800007E000
1F800007E000
1F800007E000
3F000003F000
3F000003F000
3F000003F000
3F000003F000
3F000003F000
3F000003F000
3F000003F000
3F000003F000
3F000003F000
3F03F003F000
3F0FF803F000
1F9FFC03F000
1FB83E07E000
1FB01E07E000
0FE01F07E000
0FE00F07C000
07E00F8FC000
07E00F8F8000
03E007DF0000
01F007FE0000
00F803FC0000
007E03F80000
003FFFF00000
000FFFF00000
0000FCF80000
000000FE0000
0000007F8000
0000001FFF80
00000007FF80
00000000FE00
ENDCHAR

STARTCHAR R
ENCODING 82
SWIDTH 729 0
DWIDTH 36 0
BBX 37 36 0 0
BITMAP
3FFFFF8000
3FFFFFE000
03F807F800
01F000FC00
01F0007E00
01F0007E00
01F0003F00
01F0003F00
01F0003F00
01F0003F00
01F0003F00
01F0003F00
01F0003F00
01F0007E00
01F0007C00
01F001F800
01F007F000
01FFFFC000
01FFFE0000
01F03F8000
01F01F8000
01F00FC000
01F007E000
01F007E000
01F003F000
01F003F000
01F001F800
01F001F800
01F000FC00
01F000FC00
01F0007E00
01F0003E00
01F0003F00
03F8001F80
3FFF801FF0
3FFF800FF0
ENDCHAR

STARTCHAR S
ENCODING 83
SWIDTH 615 0
DWIDTH 31 0
BBX 28 39 2 -1
BITMAP
001FC000
00FFF800
03FFFF00
07C07F80
0F801F80
1F000F80
1E000780
3E000780
3E000380
3E000380
3F000380
3F000180
3F800180
1FC00000
1FF00000
0FFC0000
07FF0000
03FFC000
01FFF000
007FFC00
001FFE00
0007FF00
0001FF80
00007FC0
00001FC0
70000FE0
70000FE0
700007E0
780007E0
380007E0
380007C0
3C0007C0
3C0007C0
3E000F80
3F001F00
3FC07E00
1FFFFC00
03FFF000
001F8000
ENDCHAR

STARTCHAR T
ENCODING 84
SWIDTH 698 0
DWIDTH 35 0
BBX 35 36 0 0
BITMAP
3FFFFFFF80
3FFFFFFF80
3FC3F87F80
3F01F01F80
3E01F00F80
3C01F00780
3C01F00380
3801F00380
3801F00380
3001F001C0
7001F001C0
7001F001C0
7001F001C0
7001F000C0
0001F00000
0001F00000
0001F00000
0001F00000
0001F00000
0001F00000
0001F00000
0001F00000
0001F00000
0001F00000
0001F00000
0001F00000
0001F00000
0001F00000
0001F00000
0001F00000
0001F00000
0001F00000
0001F00000
0003F80000
007FFFC000
007FFFC000
ENDCHAR

STARTCHAR U
ENCODING 85
SWIDTH 771 0
DWIDTH 39 0
BBX 40 37 -1 -1
BITMAP
3FFFC0FFFC
3FFFC0FFFC
03F8000FE0
01F00007C0
01F0000380
01F0000380
01F0000380
01F0000380
01F0000380
01F0000380
01F0000380
01F0000380
01F0000380
01F0000380
01F0000380
01F0000380
01F0000380
01F0000380
01F0000380
01F0000380
01F0000380
01F0000380
01F0000380
01F0000380
01F0000380
01F0000380
01F0000380
01F0000380
01F8000380
01F8000700
00F8000700
00FC000E00
007E001E00
003F807C00
001FFFF800
0007FFE000
0000FE0000
ENDCHAR

STARTCHAR V
ENCODING 86
SWIDTH 792 0
DWIDTH 40 0
BBX 40 38 0 -2
BITMAP
3FFF003FFE
3FFF003FFE
0FF00007F0
07E00003E0
03F00003C0
01F00003C0
01F0000380
01F8000380
00F8000380
00FC000700
00FC000700
007C000600
007E000E00
003E000E00
003F001C00
003F001C00
001F001C00
001F803800
000F803800
000FC03000
000FC07000
0007C07000
0007E0E000
0003E0E000
0003E0C000
0003F1C000
0001F1C000
0001FB8000
0000FB8000
0000FB0000
0000FF0000
00007F0000
00007E0000
00003E0000
00003E0000
00003C0000
00001C0000
0000180000
ENDCHAR

STARTCHAR W
ENCODING 87
SWIDTH 1010 0
DWIDTH 51 0
BBX 52 38 0 -2
BITMAP
3FFC1FFFC1FFC0
3FFC1FFFC1FFC0
0FE001FC007F00
07C000F8001E00
07E000F8001C00
07E000FC001C00
03E000FC001C00
03E000FC001800
03F001FE003800
01F001FE003800
01F001BE003000
01F803BF007000
00F803BF007000
00F8039F006000
00FC031F00E000
007C071F80E000
007C070F80E000
007E060F81C000
003E0E0FC1C000
003E0E07C1C000
003F0E07C18000
001F0C07E38000
001F1C03E38000
001F1C03E30000
000F9803E70000
000FB801F70000
000FB801F70000
000FF801FE0000
0007F001FE0000
0007F000FE0000
0007F000FC0000
0003E000FC0000
0003E0007C0000
0003E000780000
0001E000780000
0001C000380000
0001C000380000
0000C000300000
ENDCHAR

STARTCHAR X
ENCODING 88
SWIDTH 729 0
DWIDTH 36 0
BBX 38 37 -1 0
BITMAP
3FFF83FFF0
3FFF83FFF0
0FFC00FFC0
07F0003F00
03F8003E00
01F8003C00
00FC003800
00FE007000
007E007000
003F00E000
003F81C000
001F83C000
000FC38000
0007E70000
0007FE0000
0003FE0000
0001FC0000
0001FC0000
0000FE0000
00007E0000
0000FF0000
0001FF8000
0003DF8000
00038FC000
000707E000
000F07F000
000E03F000
001C01F800
003801FC00
007800FE00
0070007E00
00F0003F00
01F0003F80
03F0003FC0
0FF8003FE0
3FFF03FFF8
3FFF03FFF8
ENDCHAR

STARTCHAR Y
ENCODING 89
SWIDTH 729 0
DWIDTH 36 0
BBX 38 36 0 0
BITMAP
3FFF00FFF0
3FFF00FFF0
0FF0001FC0
07F0000F80
03F0000F00
03F8000E00
01F8001C00
00FC001C00
00FC003800
007E003800
003F007000
003F007000
001F80E000
000FC1C000
000FC1C000
0007E38000
0003F38000
0003F70000
0001FF0000
0000FE0000
0000FC0000
00007C0000
00007C0000
00007C0000
00007C0000
00007C0000
00007C0000
00007C0000
00007C0000
00007C0000
00007C0000
00007C0000
00007C0000
0000FE0000
001FFFF000
001FFFF000
ENDCHAR

STARTCHAR Z
ENCODING 90
SWIDTH 625 0
DWIDTH 31 0
BBX 31 36 0 0
BITMAP
1FFFFFF8
1FFFFFF8
1FF001F8
1FC003F0
1F0003E0
1E0007E0
1E000FC0
1C001F80
1C001F80
1C003F00
18007E00
18007E00
0000FC00
0001F800
0001F800
0003F000
0007E000
0007E000
000FC000
001F8000
001F8000
003F0000
007E0000
007E001C
00FC0018
01F80018
01F80038
03F00038
07E00078
07E00078
0FC000F8
1FC001F8
1F8003F8
3F000FF8
3FFFFFF8
3FFFFFF8
ENDCHAR

STARTCHAR bracketleft
ENCODING 91
SWIDTH 344 0
DWIDTH 17 0
BBX 14 44 3 -8
BITMAP
7FF8
7FF8
7C00
7C00
7C00
7C00
7C00
7C00
7C00
7C00
7C00
7C00
7C00
7C00
7C00
7C00
7C00
7C00
7C00
7C00
7C00
7C00
7C00
7C00
7C00
7C00
7C00
7C00
7C00
7C00
7C00
7C00
7C00
7C00
7C00
7C00
7C00
7C00
7C00
7C00
7C00
7C00
7FF8
7FF8
ENDCHAR

STARTCHAR backslash
ENCODING 92
SWIDTH 510 0
DWIDTH 26 0
BBX 26 42 0 -1
BITMAP
70000000
38000000
38000000
1C000000
1C000000
0E000000
0E000000
07000000
07000000
03800000
03800000
01800000
01C00000
00C00000
00E00000
00600000
00700000
00300000
00380000
00180000
001C0000
000C0000
000E0000
00060000
00070000
00030000
00038000
00018000
0001C000
0000C000
0000E000
00006000
00007000
00007000
00003800
00003800
00001C00
00001C00
00000E00
00000E00
00000700
00000700
ENDCHAR

STARTCHAR bracketright
ENCODING 93
SWIDTH 344 0
DWIDTH 17 0
BBX 14 45 0 -9
BITMAP
7FF8
7FF8
00F8
00F8
00F8
00F8
00F8
00F8
00F8
00F8
00F8
00F8
00F8
00F8
00F8
00F8
00F8
00F8
00F8
00F8
00F8
00F8
00F8
00F8
00F8
00F8
00F8
00F8
00F8
00F8
00F8
00F8
00F8
00F8
00F8
00F8
00F8
00F8
00F8
00F8
00F8
00F8
00F8
7FF8
7FF8
ENDCHAR

STARTCHAR asciicircum
ENCODING 94
SWIDTH 469 0
DWIDTH 23 0
BBX 25 18 -1 16
BITMAP
00080000
000C0000
001E0000
003E0000
00370000
00630000
00618000
00C1C000
01C0C000
0180E000
03806000
03003000
06003000
0E001800
0C001C00
1C000C00
18000600
30000600
ENDCHAR

STARTCHAR underscore
ENCODING 95
SWIDTH 500 0
DWIDTH 25 0
BBX 29 2 -2 -11
BITMAP
3FFFFFE0
3FFFFFE0
ENDCHAR

STARTCHAR quoteleft
ENCODING 96
SWIDTH 281 0
DWIDTH 14 0
BBX 11 14 1 24
BITMAP
0180
0380
0700
0E00
1C00
1800
3800
3E00
3F80
3F80
3F80
1F80
1F00
0600
ENDCHAR

STARTCHAR a
ENCODING 97
SWIDTH 563 0
DWIDTH 28 0
BBX 28 29 1 -1
BITMAP
00FF8000
03FFE000
07C1F000
0F80F800
1F007C00
1F007C00
3F007C00
3F007C00
1E007C00
0C007C00
00007C00
0001FC00
001FFC00
00FFFC00
03FC7C00
0FC07C00
1F007C00
3E007C00
3E007C00
7C007C00
7C007C00
7C007C00
7C00FC00
7C01FC00
7E03BC00
3F0F3E00
1FFE1FC0
0FFC0FC0
03E00780
ENDCHAR

STARTCHAR b
ENCODING 98
SWIDTH 594 0
DWIDTH 30 0
BBX 31 40 -1 -1
BITMAP
00E00000
3FE00000
3FE00000
07E00000
03E00000
03E00000
03E00000
03E00000
03E00000
03E00000
03E00000
03E07C00
03E3FF00
03E7FF80
03EF0FC0
03FC07E0
03F803E0
03F001F0
03E001F0
03E001F0
03E000F8
03E000F8
03E000F8
03E000F8
03E000F8
03E000F8
03E000F8
03E000F8
03E000F8
03E000F8
03E000F8
03E001F0
03E001F0
03E001F0
03E001E0
03F003C0
03FC07C0
03FF1F80
039FFE00
0307F800
ENDCHAR

STARTCHAR c
ENCODING 99
SWIDTH 510 0
DWIDTH 26 0
BBX 26 29 0 -1
BITMAP
001FE000
00FFF800
01F0FC00
03E03E00
07C03E00
0F803F00
0F003F00
1F003F00
1F003E00
1F003E00
3E000000
3E000000
3E000000
3E000000
3E000000
3E000000
3E000000
3E000000
3E000000
3F000000
1F000300
1F000700
0F800600
0F800E00
07C01C00
03F07C00
01FFF000
00FFE000
001F8000
ENDCHAR

STARTCHAR d
ENCODING 100
SWIDTH 594 0
DWIDTH 30 0
BBX 31 40 0 -1
BITMAP
00000180
0001FF80
0001FF80
00003F80
00000F80
00000F80
00000F80
00000F80
00000F80
00000F80
00000F80
003C0F80
00FF8F80
03FFCF80
07E0EF80
07C07F80
0F803F80
1F801F80
1F000F80
1F000F80
3F000F80
3F000F80
3E000F80
3E000F80
3E000F80
3E000F80
3E000F80
3E000F80
3E000F80
3E000F80
3F000F80
1F000F80
1F000F80
1F001F80
0F803F80
0FC07F80
07E0EFC0
03FFC7F8
00FF07F8
003C07E0
ENDCHAR

STARTCHAR e
ENCODING 101
SWIDTH 521 0
DWIDTH 26 0
BBX 27 29 0 -1
BITMAP
003FC000
00FFF000
01F1F800
03C07C00
07803E00
0F801E00
0F001F00
1F001F00
1F000F00
1F000F80
3E000F80
3E000F80
3E000F80
3FFFFF80
3FFFFF80
3E000000
3E000000
3E000000
3E000000
3F000000
1F000000
1F000380
0F800700
0F800F00
07C01E00
03F07C00
01FFF800
00FFE000
001F8000
ENDCHAR

STARTCHAR f
ENCODING 102
SWIDTH 344 0
DWIDTH 17 0
BBX 24 38 -1 0
BITMAP
000FE0
003FF8
00F8FC
00F07E
01E07E
01E03E
03E03C
03E000
03E000
03E000
03E000
03E000
3FFF80
3FFF80
3FFF80
03E000
03E000
03E000
03E000
03E000
03E000
03E000
03E000
03E000
03E000
03E000
03E000
03E000
03E000
03E000
03E000
03E000
03E000
03E000
03E000
03F000
3FFF80
3FFF80
ENDCHAR

STARTCHAR g
ENCODING 103
SWIDTH 552 0
DWIDTH 28 0
BBX 28 37 1 -9
BITMAP
007F0000
01FFE1C0
07C1FFE0
0F80FFE0
1F007BC0
1F003C00
3E003E00
3E003E00
3E003E00
3E003E00
3E003E00
1E003C00
1F007C00
0F00F800
07C1F000
01FFE000
07FF0000
1E000000
38000000
38000000
38000000
3E000000
3FFFF000
1FFFFC00
0FFFFF00
03FFFF00
07C03F80
1E000F80
3C000780
78000780
78000700
78000700
7C000F00
3E001E00
1FC0FC00
0FFFF000
01FFC000
ENDCHAR

STARTCHAR h
ENCODING 104
SWIDTH 646 0
DWIDTH 32 0
BBX 34 39 -1 0
BITMAP
0060000000
7FE0000000
7FE0000000
0FE0000000
03E0000000
03E0000000
03E0000000
03E0000000
03E0000000
03E0000000
03E0000000
03E01E0000
03E0FF8000
03E1FFC000
03E7FFC000
03EF07E000
03FC03E000
03F803F000
03F001F000
03E001F000
03E001F000
03E001F000
03E001F000
03E001F000
03E001F000
03E001F000
03E001F000
03E001F000
03E001F000
03E001F000
03E001F000
03E001F000
03E001F000
03E001F000
03E001F000
03E001F000
07F003F800
3FFE1FFF00
3FFE1FFF00
ENDCHAR

STARTCHAR i
ENCODING 105
SWIDTH 365 0
DWIDTH 18 0
BBX 17 39 2 0
BITMAP
03C000
07E000
07E000
07E000
07E000
03C000
000000
000000
000000
000000
000000
7FE000
7FE000
7FE000
07E000
03E000
03E000
03E000
03E000
03E000
03E000
03E000
03E000
03E000
03E000
03E000
03E000
03E000
03E000
03E000
03E000
03E000
03E000
03E000
03E000
03E000
07F000
7FFF00
7FFF00
ENDCHAR

STARTCHAR j
ENCODING 106
SWIDTH 323 0
DWIDTH 16 0
BBX 18 48 -4 -9
BITMAP
001E00
003F00
003F00
003F00
003F00
001E00
000000
000000
000000
000000
000000
03FF00
03FF00
03FF00
003F00
001F00
001F00
001F00
001F00
001F00
001F00
001F00
001F00
001F00
001F00
001F00
001F00
001F00
001F00
001F00
001F00
001F00
001F00
001F00
001F00
001F00
001F00
001F00
001F00
001F00
001E00
001E00
3C1E00
3E1C00
3F3C00
3FF800
1FE000
078000
ENDCHAR

STARTCHAR k
ENCODING 107
SWIDTH 625 0
DWIDTH 31 0
BBX 32 38 0 0
BITMAP
3FE00000
3FE00000
1FE00000
03E00000
03E00000
03E00000
03E00000
03E00000
03E00000
03E00000
03E00000
03E07FF8
03E07FF8
03E00FC0
03E00F00
03E00E00
03E01C00
03E03800
03E07000
03E0E000
03E1C000
03E3E000
03E7E000
03EFF000
03FDF800
03F8F800
03F07C00
03E07E00
03E03E00
03E01F00
03E01F80
03E00F80
03E00FC0
03E007E0
03E003E0
07F007F8
3FFE1FFE
3FFE1FFE
ENDCHAR

STARTCHAR l
ENCODING 108
SWIDTH 333 0
DWIDTH 17 0
BBX 18 38 0 0
BITMAP
7FE000
7FE000
7FE000
07E000
03E000
03E000
03E000
03E000
03E000
03E000
03E000
03E000
03E000
03E000
03E000
03E000
03E000
03E000
03E000
03E000
03E000
03E000
03E000
03E000
03E000
03E000
03E000
03E000
03E000
03E000
03E000
03E000
03E000
03E000
03E000
03F000
7FFF00
7FFF00
ENDCHAR

STARTCHAR m
ENCODING 109
SWIDTH 938 0
DWIDTH 47 0
BBX 48 28 -1 0
BITMAP
07C03C003C00
3FC0FF00FF00
3FE1FF81FF80
07E3FFC7FFC0
03EF0FCF0FC0
03FC07FC07E0
03F803F803E0
03F003F003E0
03E003E003E0
03E003E003E0
03E003E003E0
03E003E003E0
03E003E003E0
03E003E003E0
03E003E003E0
03E003E003E0
03E003E003E0
03E003E003E0
03E003E003E0
03E003E003E0
03E003E003E0
03E003E003E0
03E003E003E0
03E003E003E0
03E003E003E0
03F007F007F0
3FFE3FFE3FFE
3FFE3FFE3FFE
ENDCHAR

STARTCHAR n
ENCODING 110
SWIDTH 646 0
DWIDTH 32 0
BBX 34 28 -1 0
BITMAP
07C01E0000
3FC0FF8000
3FE1FFC000
07E3FFE000
03EF07E000
03FC03E000
03F803F000
03F001F000
03E001F000
03E001F000
03E001F000
03E001F000
03E001F000
03E001F000
03E001F000
03E001F000
03E001F000
03E001F000
03E001F000
03E001F000
03E001F000
03E001F000
03E001F000
03E001F000
03E001F000
03F003F800
3FFE1FFF00
3FFE1FFF00
ENDCHAR

STARTCHAR o
ENCODING 111
SWIDTH 562 0
DWIDTH 28 0
BBX 28 29 0 -1
BITMAP
003FC000
00FFF000
01F0FC00
03C03E00
07801E00
0F801F00
0F000F80
1F000F80
1F000F80
1F0007C0
3E0007C0
3E0007C0
3E0007C0
3E0007C0
3E0007C0
3E0007C0
3E0007C0
3E0007C0
3E0007C0
1F0007C0
1F000F80
1F000F80
0F000F00
0F801F00
07C01E00
03C03C00
01F0F800
00FFF000
003FC000
ENDCHAR

STARTCHAR p
ENCODING 112
SWIDTH 594 0
DWIDTH 30 0
BBX 31 37 -1 -9
BITMAP
07C07800
3FC1FE00
3FC7FF80
03EE0FC0
03FC07E0
03F803E0
03F001F0
03E001F0
03E001F8
03E001F8
03E000F8
03E000F8
03E000F8
03E000F8
03E000F8
03E000F8
03E000F8
03E000F8
03E000F8
03E001F0
03E001F0
03F001F0
03F803E0
03FC03E0
03EE0FC0
03E7FF80
03E3FF00
03E07800
03E00000
03E00000
03E00000
03E00000
03E00000
03E00000
07F00000
3FFF8000
3FFF8000
ENDCHAR

STARTCHAR q
ENCODING 113
SWIDTH 594 0
DWIDTH 30 0
BBX 30 37 0 -9
BITMAP
007F8000
01FFE300
03E1FF00
07C07F00
0F803F00
0F001F00
1F001F00
1F001F00
1E001F00
3E001F00
3E001F00
3E001F00
3E001F00
3E001F00
3E001F00
3E001F00
3E001F00
3E001F00
3E001F00
1F001F00
1F001F00
1F003F00
0F807F00
0F80FF00
07C1DF00
03FF9F00
01FF1F00
007C1F00
00001F00
00001F00
00001F00
00001F00
00001F00
00001F00
00001F80
0003FFF0
0003FFF0
ENDCHAR

STARTCHAR r
ENCODING 114
SWIDTH 490 0
DWIDTH 24 0
BBX 25 28 0 0
BITMAP
3F807800
3FC1FE00
3FC3FE00
03C73F00
03EE3F00
03FC3F00
03F83E00
03F01E00
03E00000
03E00000
03E00000
03E00000
03E00000
03E00000
03E00000
03E00000
03E00000
03E00000
03E00000
03E00000
03E00000
03E00000
03E00000
03E00000
03E00000
07F00000
3FFF0000
3FFF0000
ENDCHAR

STARTCHAR s
ENCODING 115
SWIDTH 479 0
DWIDTH 24 0
BBX 23 29 0 -1
BITMAP
00FF00
03FFE0
0787F0
0E01F0
1E00F0
1C0070
3C0070
3C0030
3C0030
3E0000
1F8000
1FE000
1FFE00
0FFF80
07FFE0
01FFF0
003FF8
0007F8
0001FC
30007C
30003C
30003C
38003C
380038
3C0078
3F00F0
3FC3F0
1FFFC0
03FF00
ENDCHAR

STARTCHAR t
ENCODING 116
SWIDTH 375 0
DWIDTH 19 0
BBX 20 37 -1 -1
BITMAP
006000
006000
006000
00E000
00E000
00E000
00E000
01E000
03E000
07E000
1FFFC0
3FFFC0
3FFFC0
03E000
03E000
03E000
03E000
03E000
03E000
03E000
03E000
03E000
03E000
03E000
03E000
03E000
03E000
03E000
03E000
03E000
03E000
03E020
03E060
01F1E0
01FFC0
00FF80
007C00
ENDCHAR

STARTCHAR u
ENCODING 117
SWIDTH 646 0
DWIDTH 32 0
BBX 34 29 -1 -1
BITMAP
3FE03FF000
3FE03FF000
3FE03FF000
07E003F000
03E001F000
03E001F000
03E001F000
03E001F000
03E001F000
03E001F000
03E001F000
03E001F000
03E001F000
03E001F000
03E001F000
03E001F000
03E001F000
03E001F000
03E001F000
03E001F000
03E001F000
03E003F000
03E007F000
03F00FF000
01F81DF000
01FC79F000
00FFF1FF00
007FC0FF00
001F80FF00
ENDCHAR

STARTCHAR v
ENCODING 118
SWIDTH 594 0
DWIDTH 30 0
BBX 31 27 -1 0
BITMAP
3FFC0FFC
3FFC0FFC
0FE003F0
07E001C0
03E001C0
03E00180
01F00180
01F00380
01F00300
00F80300
00F80700
00780600
007C0600
007C0E00
003E0C00
003E1C00
003E1C00
001F1800
001F3800
000F3800
000FB000
000FF000
0007E000
0007E000
0007E000
0003C000
0003C000
ENDCHAR

STARTCHAR w
ENCODING 119
SWIDTH 833 0
DWIDTH 42 0
BBX 43 27 -1 0
BITMAP
3FF8FFF0FF80
3FF8FFF0FF80
0FC01F803E00
07C00F001C00
07C00F801C00
03C00F801800
03C00F801800
03E01FC03800
01E01FC03000
01E01BC03000
01F03BE07000
00F03BE06000
00F031E06000
00F831F06000
007871F0E000
007860F0C000
007C60F8C000
003CE0F9C000
003CE0798000
003EC07D8000
001EC07F8000
001FC03F0000
001F803F0000
000F803F0000
000F801F0000
000F001E0000
000F001E0000
ENDCHAR

STARTCHAR x
ENCODING 120
SWIDTH 583 0
DWIDTH 29 0
BBX 30 27 0 0
BITMAP
7FF87FE0
7FF87FE0
1FC00F80
07C00F00
07E00E00
03E01C00
01F03800
00F83000
00FC7000
007CE000
003FC000
003F8000
001F8000
000F8000
000FC000
001FE000
003BF000
0031F000
0060F800
00E0FC00
01C07C00
01803E00
03001F00
07001F80
1F801FC0
7FF0FFF0
7FF0FFF0
ENDCHAR

STARTCHAR y
ENCODING 121
SWIDTH 594 0
DWIDTH 30 0
BBX 31 36 0 -9
BITMAP
7FFC1FF8
7FFC1FF8
0FE007E0
07C003C0
07C00380
03E00380
03E00300
01F00300
01F00700
01F00600
00F80600
00F80C00
007C0C00
007C1C00
003C1800
003E1800
003E3800
001F3000
001F7000
000FE000
000FE000
0007E000
0007C000
0007C000
00038000
00038000
00038000
00030000
00030000
0E070000
1F060000
1F0E0000
1F1C0000
1FF80000
0FF00000
03C00000
ENDCHAR

STARTCHAR z
ENCODING 122
SWIDTH 479 0
DWIDTH 24 0
BBX 24 27 0 0
BITMAP
1FFFFC
1FFFFC
1F00FC
1C00F8
1C01F0
1803F0
3803E0
3807C0
3007C0
000F80
001F00
001F00
003E00
007C00
007C00
00F800
01F000
01F00C
03E00C
07C00C
07C01C
0F801C
1F001C
1F003C
3E00FC
7FFFFC
7FFFFC
ENDCHAR

STARTCHAR braceleft
ENCODING 123
SWIDTH 479 0
DWIDTH 24 0
BBX 17 45 3 -8
BITMAP
000E00
003800
006000
00C000
01C000
01C000
01C000
03C000
03C000
03C000
03E000
01E000
01E000
01E000
01E000
01E000
01C000
01C000
018000
030000
060000
180000
380000
0C0000
030000
018000
01C000
01C000
01E000
01E000
01E000
01E000
01E000
03E000
03C000
03C000
03C000
03C000
01C000
01C000
00C000
006000
003000
001C00
000600
ENDCHAR

STARTCHAR bar
ENCODING 124
SWIDTH 510 0
DWIDTH 26 0
BBX 5 42 10 -1
BITMAP
70
70
70
70
70
70
70
70
70
70
70
70
70
70
70
70
70
70
70
70
70
70
70
70
70
70
70
70
70
70
70
70
70
70
70
70
70
70
70
70
70
70
ENDCHAR

STARTCHAR braceright
ENCODING 125
SWIDTH 479 0
DWIDTH 24 0
BBX 17 45 4 -8
BITMAP
180000
060000
030000
018000
01C000
01C000
01E000
01E000
01E000
01E000
01E000
01E000
03C000
03C000
03C000
03C000
01C000
01C000
00C000
006000
003000
000C00
000600
001800
006000
00E000
01C000
01C000
03C000
03C000
03C000
03C000
03E000
03E000
01E000
01E000
01E000
01E000
01C000
01C000
018000
030000
060000
1C0000
300000
ENDCHAR

STARTCHAR asciitilde
ENCODING 126
SWIDTH 667 0
DWIDTH 33 0
BBX 29 8 2 12
BITMAP
03800010
0FF00030
1FFE0030
183F8020
3007E0E0
2001FFC0
20007F80
20000E00
ENDCHAR

STARTCHAR space
ENCODING 160
SWIDTH 250 0
DWIDTH 16 0
BBX 0 0 0 0
BITMAP
ENDCHAR

STARTCHAR afii10023
ENCODING 161
SWIDTH 698 0
DWIDTH 35 0
BBX 35 46 0 0
BITMAP
007000E000
01F803F000
01F803F000
01F803F000
01F803F000
00F001E000
0000000000
0000000000
0000000000
0000000000
3FFFFFFE00
3FFFFFFF00
03F800FF00
01F0003F00
01F0001F00
01F0000F00
01F0000F00
01F0000700
01F0000700
01F0060700
01F0060300
01F0060300
01F00E0000
01F00E0000
01F01E0000
01F03E0000
01FFFE0000
01FFFE0000
01F07E0000
01F01E0000
01F00E0000
01F00E0000
01F0060180
01F0060180
01F0060180
01F0060380
01F0000380
01F0000380
01F0000780
01F0000780
01F0000F80
01F0001F80
01F0003F80
03F801FF80
3FFFFFFF80
3FFFFFFF80
ENDCHAR

STARTCHAR afii10051
ENCODING 162
SWIDTH 875 0
DWIDTH 44 0
BBX 45 38 -1 -1
BITMAP
3FFFFFFF8000
3FFFFFFF8000
3FFFFFFF8000
3F83F83F8000
3E01F01F8000
3E01F00F8000
3C01F0078000
3801F0038000
3801F0038000
3801F0038000
3001F0018000
0001F0000000
0001F0000000
0001F0000000
0001F01FE000
0001F07FF800
0001F0FFFE00
0001F3E0FF00
0001F7803F80
0001FE001F80
0001FC000FC0
0001F8000FC0
0001F0000FE0
0001F00007E0
0001F00007E0
0001F00007E0
0001F00007E0
0001F00007E0
0001F00007E0
0001F00007E0
0001F00007E0
0001F00007C0
0001F0000FC0
0001F0000F80
0003F8071F80
007FFFC7FF00
007FFFC3FC00
00000001F800
ENDCHAR

STARTCHAR afii10052
ENCODING 163
SWIDTH 635 0
DWIDTH 32 0
BBX 33 46 0 0
BITMAP
00000F0000
00003F0000
00007F0000
0001FE0000
0003F80000
000F800000
0000000000
0000000000
0000000000
0000000000
3FFFFFFE00
3FFFFFFE00
03F801FE00
01F0007E00
01F0003E00
01F0001E00
01F0001E00
01F0000E00
01F0000E00
01F0000E00
01F0000600
01F0000600
01F0000600
01F0000000
01F0000000
01F0000000
01F0000000
01F0000000
01F0000000
01F0000000
01F0000000
01F0000000
01F0000000
01F0000000
01F0000000
01F0000000
01F0000000
01F0000000
01F0000000
01F0000000
01F0000000
01F0000000
01F0000000
03F8000000
3FFF800000
3FFF800000
ENDCHAR

STARTCHAR afii10053
ENCODING 164
SWIDTH 698 0
DWIDTH 35 0
BBX 35 39 0 -1
BITMAP
0001FFC000
000FFFF800
003F07FE00
007C00FE00
00F8007E00
01F0003F00
03E0001F00
07E0000F00
07C0000F00
0FC0000700
0F80000700
1F80000300
1F80000380
1F80000000
3F80000000
3F00000000
3F00000000
3F00000000
3FFFFC0000
3FFFFC0000
3FFFFC0000
3F00000000
3F00000000
3F00000000
3F00000000
1F80000180
1F80000180
1F80000380
0F80000380
0FC0000380
07C0000700
07E0000700
03F0000E00
01F8001C00
00FC007C00
007F01F000
001FFFE000
000FFF8000
0000FC0000
ENDCHAR

STARTCHAR afii10054
ENCODING 165
SWIDTH 594 0
DWIDTH 30 0
BBX 28 39 1 -1
BITMAP
001FC000
00FFF800
03FFFF00
07C07F80
0F801F80
1F000F80
1E000780
3E000780
3E000380
3E000380
3F000380
3F000380
3F800180
1FC00000
1FF00000
0FFC0000
07FF0000
03FFC000
01FFF000
007FFC00
001FFE00
0007FF00
0001FF80
00007FC0
00001FC0
70000FE0
70000FE0
700007E0
780007E0
380007E0
380007C0
3C0007C0
3C0007C0
3E000F80
3F001F00
3FC07E00
1FFFFC00
03FFF000
001F8000
ENDCHAR

STARTCHAR afii10055
ENCODING 166
SWIDTH 385 0
DWIDTH 19 0
BBX 19 36 0 0
BITMAP
7FFFC0
7FFFC0
03F800
01F000
01F000
01F000
01F000
01F000
01F000
01F000
01F000
01F000
01F000
01F000
01F000
01F000
01F000
01F000
01F000
01F000
01F000
01F000
01F000
01F000
01F000
01F000
01F000
01F000
01F000
01F000
01F000
01F000
01F000
03F800
7FFFC0
7FFFC0
ENDCHAR

STARTCHAR afii10056
ENCODING 167
SWIDTH 385 0
DWIDTH 19 0
BBX 24 46 -2 0
BITMAP
1C0078
7E00FC
7E00FC
7E00FC
7E00FC
3C0078
000000
000000
000000
000000
1FFFF0
1FFFF0
00FE00
007C00
007C00
007C00
007C00
007C00
007C00
007C00
007C00
007C00
007C00
007C00
007C00
007C00
007C00
007C00
007C00
007C00
007C00
007C00
007C00
007C00
007C00
007C00
007C00
007C00
007C00
007C00
007C00
007C00
007C00
00FE00
1FFFF0
1FFFF0
ENDCHAR

STARTCHAR afii10057
ENCODING 168
SWIDTH 573 0
DWIDTH 29 0
BBX 29 37 0 -1
BITMAP
001FFFE0
001FFFE0
0000FE00
00007C00
00007C00
00007C00
00007C00
00007C00
00007C00
00007C00
00007C00
00007C00
00007C00
00007C00
00007C00
00007C00
00007C00
00007C00
00007C00
00007C00
00007C00
00007C00
00007C00
1E007C00
3F007C00
3F007C00
7F007C00
7F007C00
7E007C00
7E007C00
3C00FC00
3C00F800
1C01F800
1F03F000
0FFFE000
03FF8000
007C0000
ENDCHAR

STARTCHAR afii10058
ENCODING 169
SWIDTH 1092 0
DWIDTH 55 0
BBX 56 37 -1 -1
BITMAP
007FFFFFFE0000
007FFFFFFE0000
000FE007E00000
0007C007C00000
00078007C00000
00078007C00000
00078007C00000
00038007C00000
00038007C00000
00038007C00000
00038007C00000
00038007C00000
00030007C00000
00030007C00000
00070007C00000
00070007C00000
00070007FFF800
00070007FFFF00
00070007C03FC0
00070007C007E0
00070007C003F0
00070007C001F8
00060007C001F8
00060007C000FC
000E0007C000FC
000E0007C000FC
000E0007C000FC
000C0007C000FC
000C0007C000FC
1E1C0007C001FC
3F180007C001F8
3F380007C003F8
3FF80007C007F0
3FF0000FE01FC0
3FE000FFFFFF80
3FC000FFFFFC00
0F800000000000
ENDCHAR

STARTCHAR afii10059
ENCODING 170
SWIDTH 1089 0
DWIDTH 54 0
BBX 55 36 0 0
BITMAP
3FFF81FFFC0000
3FFF81FFFC0000
03F8001FC00000
01F0000F800000
01F0000F800000
01F0000F800000
01F0000F800000
01F0000F800000
01F0000F800000
01F0000F800000
01F0000F800000
01F0000F800000
01F0000F800000
01F0000F800000
01F0000F800000
01F0000F800000
01F0000F800000
01FFFFFFFFF000
01FFFFFFFFFE00
01F0000F803F80
01F0000F800FE0
01F0000F8007F0
01F0000F8003F0
01F0000F8003F8
01F0000F8001F8
01F0000F8001F8
01F0000F8001F8
01F0000F8001F8
01F0000F8001F8
01F0000F8003F8
01F0000F8003F0
01F0000F8007F0
01F0000F800FE0
03F8001FC03FC0
3FFF81FFFFFF00
3FFF81FFFFF800
ENDCHAR

STARTCHAR afii10060
ENCODING 171
SWIDTH 885 0
DWIDTH 44 0
BBX 46 36 -1 0
BITMAP
1FFFFFFF8000
3FFFFFFF8000
3FC3F87F8000
3F01F01F8000
3E01F00F8000
3C01F0078000
3C01F0038000
3801F0038000
3801F0018000
3001F0018000
0001F0000000
0001F0000000
0001F0000000
0001F00FE000
0001F07FF000
0001F0FFF800
0001F3E1FC00
0001F780FC00
0001FE007E00
0001FC007E00
0001F8003E00
0001F0003E00
0001F0003E00
0001F0003E00
0001F0003E00
0001F0003E00
0001F0003E00
0001F0003E00
0001F0003E00
0001F0003E00
0001F0003E00
0001F0003E00
0001F0003E00
0003F8007F00
007FFFC7FFF0
007FFFC7FFF0
ENDCHAR

STARTCHAR afii10061
ENCODING 172
SWIDTH 759 0
DWIDTH 38 0
BBX 40 47 0 0
BITMAP
000001E000
000003E000
00000FE000
00001FE000
00007F8000
0000F80000
0001000000
0000000000
0000000000
00000003C0
0000000FF0
3FFFC01FF0
3FFFC01FF0
03F8003FF0
01F0007FF0
01F00071E0
01F0006000
01F000E000
01F000C000
01F000C000
01F0018000
01F0018000
01F0038000
01F0030000
01F0070000
01F00E0000
01F01C0000
01FFF80000
01FFFF0000
01FFFF8000
01F00FC000
01F007E000
01F003E000
01F003F000
01F001F000
01F001F800
01F000F800
01F000FC00
01F0007C00
01F0007E00
01F0003E00
01F0003F00
01F0001F80
01F0001FC0
03F8000FE0
3FFFC00FFC
3FFFC007FC
ENDCHAR

STARTCHAR hyphen
ENCODING 173
SWIDTH 281 0
DWIDTH 14 0
BBX 14 4 0 11
BITMAP
3FF0
3FF0
3FF0
3FF0
ENDCHAR

STARTCHAR afii10062
ENCODING 174
SWIDTH 732 0
DWIDTH 37 0
BBX 39 48 -1 -1
BITMAP
000F007000
000F80F800
000F80F800
000F00F800
000F007000
000780F000
0003FFC000
00007F0000
0000000000
0000000000
0000000000
7FFF00FFFC
7FFF00FFFC
0FF0000FE0
07F00007C0
03F0000780
03F0000700
01F8000700
01F8000600
00FC000E00
00FC000E00
007C000C00
007E001C00
003E001800
003F003800
001F003000
001F807000
000F806000
000FC0E000
000FC0C000
0007C1C000
0007E18000
0003E18000
0003F30000
0001F30000
0001FF0000
0000FE0000
0000FE0000
00007C0000
01C07C0000
03E0380000
07E0380000
07E0300000
07E0700000
03F0E00000
03FFC00000
01FF800000
003E000000
ENDCHAR

STARTCHAR afii10145
ENCODING 175
SWIDTH 823 0
DWIDTH 41 0
BBX 42 45 0 -9
BITMAP
3FFF807FFF00
3FFF807FFF00
03F80007F000
01F00003E000
01F00003E000
01F00003E000
01F00003E000
01F00003E000
01F00003E000
01F00003E000
01F00003E000
01F00003E000
01F00003E000
01F00003E000
01F00003E000
01F00003E000
01F00003E000
01F00003E000
01F00003E000
01F00003E000
01F00003E000
01F00003E000
01F00003E000
01F00003E000
01F00003E000
01F00003E000
01F00003E000
01F00003E000
01F00003E000
01F00003E000
01F00003E000
01F00003E000
01F80003E000
03F80007F000
3FFFFFFFFF00
3FFFFFFFFF00
0003FFF00000
00007F800000
00003F000000
00001E000000
00001E000000
00001E000000
00000C000000
00000C000000
00000C000000
ENDCHAR

STARTCHAR afii10017
ENCODING 176
SWIDTH 792 0
DWIDTH 40 0
BBX 42 38 -1 0
BITMAP
00000C000000
00001E000000
00001E000000
00003E000000
00003F000000
00003F000000
00007F800000
00006F800000
0000EF800000
0000EFC00000
0000C7C00000
0001C7E00000
000183E00000
000383E00000
000383F00000
000701F00000
000701F80000
000600F80000
000E00F80000
000E00FC0000
001C007C0000
001C007E0000
0018003E0000
0038003E0000
003FFFFF0000
007FFFFF0000
007FFFFF8000
0060001F8000
00E0000F8000
00E0000FC000
01C00007C000
01C00007E000
01C00003E000
03C00003E000
07C00003F000
0FE00007F800
3FFE007FFF00
3FFE007FFF00
ENDCHAR

STARTCHAR afii10018
ENCODING 177
SWIDTH 701 0
DWIDTH 35 0
BBX 35 36 0 0
BITMAP
3FFFFFFE00
3FFFFFFE00
03F801FE00
01F0007E00
01F0003E00
01F0001E00
01F0001E00
01F0000E00
01F0000E00
01F0000E00
01F0000600
01F0000600
01F0000000
01F0000000
01F0000000
01F0000000
01FFFE0000
01FFFFE000
01F003F800
01F000FC00
01F0007E00
01F0003F00
01F0003F00
01F0001F80
01F0001F80
01F0001F80
01F0001F80
01F0001F80
01F0001F80
01F0003F80
01F0003F00
01F0003F00
01F000FE00
03F803FC00
3FFFFFF000
3FFFFF8000
ENDCHAR

STARTCHAR afii10019
ENCODING 178
SWIDTH 719 0
DWIDTH 36 0
BBX 36 36 0 0
BITMAP
3FFFFFC000
3FFFFFF000
03F803F800
01F000FC00
01F0007E00
01F0007E00
01F0003F00
01F0003F00
01F0003F00
01F0003F00
01F0003F00
01F0003F00
01F0003E00
01F0007E00
01F000FC00
01F001F800
01F007E000
01FFFF8000
01FFFFF000
01F001FC00
01F0007E00
01F0003F00
01F0001F80
01F0001FC0
01F0000FC0
01F0000FC0
01F0000FC0
01F0000FC0
01F0000FC0
01F0001FC0
01F0001F80
01F0001F80
01F0007F00
03F801FE00
3FFFFFF800
3FFFFFC000
ENDCHAR

STARTCHAR afii10020
ENCODING 179
SWIDTH 635 0
DWIDTH 32 0
BBX 33 36 0 0
BITMAP
3FFFFFFE00
3FFFFFFE00
03F801FE00
01F0007E00
01F0003E00
01F0001E00
01F0001E00
01F0000E00
01F0000E00
01F0000E00
01F0000600
01F0000600
01F0000600
01F0000000
01F0000000
01F0000000
01F0000000
01F0000000
01F0000000
01F0000000
01F0000000
01F0000000
01F0000000
01F0000000
01F0000000
01F0000000
01F0000000
01F0000000
01F0000000
01F0000000
01F0000000
01F0000000
01F0000000
03F8000000
3FFF800000
3FFF800000
ENDCHAR

STARTCHAR afii10021
ENCODING 180
SWIDTH 760 0
DWIDTH 38 0
BBX 40 45 -2 -9
BITMAP
007FFFFFFC
007FFFFFFC
003FF00FC0
000FC00F80
0007800F80
0007800F80
0003800F80
0003800F80
0003800F80
0003800F80
0003800F80
0003000F80
0003000F80
0003000F80
0003000F80
0007000F80
0007000F80
0007000F80
0007000F80
0007000F80
0006000F80
000E000F80
000E000F80
000E000F80
000C000F80
001C000F80
001C000F80
0038000F80
0038000F80
0070000F80
0060000F80
00E0000F80
03C0000F80
0F00000FC0
3FFFFFFFFC
3FFFFFFFFC
3FC00003FC
3F0000007C
3C0000003C
3C0000001C
380000001C
380000000C
300000000C
300000000C
300000000C
ENDCHAR

STARTCHAR afii10022
ENCODING 181
SWIDTH 698 0
DWIDTH 35 0
BBX 35 36 0 0
BITMAP
3FFFFFFE00
3FFFFFFF00
03F800FF00
01F0003F00
01F0001F00
01F0000F00
01F0000F00
01F0000700
01F0000700
01F0060700
01F0060300
01F0060300
01F00E0000
01F00E0000
01F01E0000
01F03E0000
01FFFE0000
01FFFE0000
01F07E0000
01F01E0000
01F00E0000
01F00E0000
01F0060180
01F0060180
01F0060180
01F0060380
01F0000380
01F0000380
01F0000780
01F0000780
01F0000F80
01F0001F80
01F0003F80
03F801FF80
3FFFFFFF80
3FFFFFFF80
ENDCHAR

STARTCHAR afii10024
ENCODING 182
SWIDTH 1115 0
DWIDTH 56 0
BBX 57 38 -1 0
BITMAP
07C000000001F000
0FE000000003F800
1FF007FFF007FC00
1FF807FFF00FFC00
1FF8007F000FFC00
0FBC003E000EFC00
071C003E001C7800
000C003E00180000
000E003E00380000
000E003E00380000
0006003E00300000
0007003E00300000
0007003E00700000
0003003E00600000
0003803E00E00000
0001803E00C00000
0001C03E01C00000
0000F03E03800000
00007FFFFF000000
0000FFFFFFC00000
0003FFFFFFE00000
0007E03E03F00000
000FC03E01F80000
000F803E00FC0000
001F003E007C0000
001F003E007E0000
003E003E003E0000
003E003E003E0000
007C003E001F0000
007C003E001F0000
00FC003E000F8000
00F8003E000F8000
01F8003E000FC000
01F0003E0007C000
03F0003E0007E000
0FE0007F0003F800
7FE007FFF003FF00
7FE007FFF003FF00
ENDCHAR

STARTCHAR afii10025
ENCODING 183
SWIDTH 601 0
DWIDTH 30 0
BBX 30 39 0 -1
BITMAP
001FC000
01FFFC00
07FFFE00
0FC07F80
0F801F80
0F000FC0
1E000FE0
1E0007E0
1C0007E0
1C0007E0
180007E0
180007E0
180007C0
00000FC0
00001F80
00003F00
00007E00
0007F800
001FC000
001FFC00
0001FF00
00003FC0
00000FC0
000007E0
000007F0
000003F0
000003F0
000003F0
700003F0
700003F0
300003F0
380007F0
180007E0
1C000FC0
0E001FC0
0780FF80
03FFFE00
01FFFC00
003FE000
ENDCHAR

STARTCHAR afii10026
ENCODING 184
SWIDTH 823 0
DWIDTH 41 0
BBX 42 36 0 0
BITMAP
3FFF807FFF00
3FFF807FFF00
03F80007F000
01F00003E000
01F00003E000
01F00007E000
01F0000FE000
01F0001FE000
01F0001FE000
01F0003BE000
01F00073E000
01F000F3E000
01F000E3E000
01F001C3E000
01F00383E000
01F00783E000
01F00703E000
01F00E03E000
01F01C03E000
01F03C03E000
01F03803E000
01F07003E000
01F0E003E000
01F1E003E000
01F1C003E000
01F38003E000
01F70003E000
01FF0003E000
01FE0003E000
01FC0003E000
01F80003E000
01F00003E000
01F80003F000
03F80007F000
3FFF807FFF00
3FFF807FFF00
ENDCHAR

STARTCHAR afii10027
ENCODING 185
SWIDTH 823 0
DWIDTH 41 0
BBX 42 47 0 0
BITMAP
000780380000
0007C07C0000
0007C07C0000
0007807C0000
000780380000
0003C0780000
0001FFE00000
00003F800000
000000000000
000000000000
000000000000
3FFF807FFF00
3FFF807FFF00
03F80007F000
01F00003E000
01F00003E000
01F00007E000
01F0000FE000
01F0001FE000
01F0001FE000
01F0003BE000
01F00073E000
01F000F3E000
01F000E3E000
01F001C3E000
01F00383E000
01F00783E000
01F00703E000
01F00E03E000
01F01C03E000
01F03C03E000
01F03803E000
01F07003E000
01F0E003E000
01F1E003E000
01F1C003E000
01F38003E000
01F70003E000
01FE0003E000
01FE0003E000
01FC0003E000
01F80003E000
01F00003E000
01F00003F000
03F80007F000
3FFF807FFF00
3FFF807FFF00
ENDCHAR

STARTCHAR afii10028
ENCODING 186
SWIDTH 759 0
DWIDTH 38 0
BBX 40 38 0 0
BITMAP
00000003C0
0000000FF0
3FFFC01FF0
3FFFC01FF0
03F8003FF0
01F0007FF0
01F00071E0
01F0006000
01F000E000
01F000C000
01F000C000
01F0018000
01F0018000
01F0038000
01F0030000
01F0070000
01F00E0000
01F01C0000
01FFF80000
01FFFF0000
01FFFF8000
01F00FC000
01F007E000
01F003E000
01F003F000
01F001F000
01F001F800
01F000F800
01F000FC00
01F0007C00
01F0007E00
01F0003E00
01F0003F00
01F0001F80
01F0001FC0
03F8000FE0
3FFFC00FFC
3FFFC007FC
ENDCHAR

STARTCHAR afii10029
ENCODING 187
SWIDTH 789 0
DWIDTH 39 0
BBX 41 37 -1 -1
BITMAP
00FFFFFFFE00
00FFFFFFFE00
001FE007E000
000FC007C000
00078007C000
00078007C000
00078007C000
00078007C000
00078007C000
00070007C000
00070007C000
00070007C000
00070007C000
00070007C000
00070007C000
00070007C000
00070007C000
00070007C000
00070007C000
00070007C000
00060007C000
00060007C000
000E0007C000
000E0007C000
000E0007C000
000E0007C000
000C0007C000
000C0007C000
001C0007C000
1E1C0007C000
3F180007C000
7F380007C000
7FF00007E000
7FF0000FE000
3FE000FFFE00
3FC000FFFE00
0F8000000000
ENDCHAR

STARTCHAR afii10030
ENCODING 188
SWIDTH 979 0
DWIDTH 49 0
BBX 49 36 0 0
BITMAP
7FFC00001FFE00
7FFC00003FFE00
03FC00003FE000
03FE000037C000
03BE000077C000
03BF000077C000
039F000067C000
039F0000E7C000
039F8000C7C000
038F8001C7C000
038FC001C7C000
0387C00187C000
0387C00387C000
0387E00387C000
0383E00307C000
0383F00707C000
0381F00607C000
0381F00E07C000
0381F80E07C000
0380F80C07C000
0380FC1C07C000
03807C1C07C000
03807C1807C000
03807E3807C000
03803E3007C000
03803F7007C000
03801F7007C000
03801F6007C000
03801FE007C000
03800FE007C000
03800FC007C000
038007C007C000
07C0078007C000
1FF007800FE000
7FFC0380FFFE00
7FFC0300FFFE00
ENDCHAR

STARTCHAR afii10031
ENCODING 189
SWIDTH 812 0
DWIDTH 41 0
BBX 41 36 0 0
BITMAP
3FFF80FFFE00
3FFF80FFFE00
03F8000FE000
01F00007C000
01F00007C000
01F00007C000
01F00007C000
01F00007C000
01F00007C000
01F00007C000
01F00007C000
01F00007C000
01F00007C000
01F00007C000
01F00007C000
01F00007C000
01FFFFFFC000
01FFFFFFC000
01FFFFFFC000
01F00007C000
01F00007C000
01F00007C000
01F00007C000
01F00007C000
01F00007C000
01F00007C000
01F00007C000
01F00007C000
01F00007C000
01F00007C000
01F00007C000
01F00007C000
01F00007C000
03F8000FE000
3FFF80FFFE00
3FFF80FFFE00
ENDCHAR

STARTCHAR afii10032
ENCODING 190
SWIDTH 767 0
DWIDTH 38 0
BBX 38 39 0 -1
BITMAP
0000FC0000
000FFFC000
003FFFF000
007E01F800
00F8007C00
01F0003E00
03E0001F00
07E0001F80
07C0000FC0
0FC0000FC0
0F800007E0
1F800007E0
1F800007E0
1F800007F0
3F000003F0
3F000003F0
3F000003F0
3F000003F0
3F000003F0
3F000003F0
3F000003F0
3F000003F0
3F000003F0
3F000003F0
3F800003F0
1F800007E0
1F800007E0
1F800007E0
0F800007C0
0FC0000FC0
07C0000F80
07E0001F80
03E0001F00
01F0003E00
00F8007C00
007E01F800
003FFFF000
000FFFC000
0000FE0000
ENDCHAR

STARTCHAR afii10033
ENCODING 191
SWIDTH 823 0
DWIDTH 41 0
BBX 42 36 0 0
BITMAP
3FFFFFFFFF00
3FFFFFFFFF00
03F00003F000
01F00003E000
01F00003E000
01F00003E000
01F00003E000
01F00003E000
01F00003E000
01F00003E000
01F00003E000
01F00003E000
01F00003E000
01F00003E000
01F00003E000
01F00003E000
01F00003E000
01F00003E000
01F00003E000
01F00003E000
01F00003E000
01F00003E000
01F00003E000
01F00003E000
01F00003E000
01F00003E000
01F00003E000
01F00003E000
01F00003E000
01F00003E000
01F00003E000
01F00003E000
01F00003E000
03F80007F000
3FFFC07FFF00
3FFFC07FFF00
ENDCHAR

STARTCHAR afii10034
ENCODING 192
SWIDTH 662 0
DWIDTH 33 0
BBX 34 36 0 0
BITMAP
3FFFFF8000
3FFFFFE000
03F807F800
01F001FC00
01F000FE00
01F0007E00
01F0007F00
01F0003F00
01F0003F00
01F0003F00
01F0003F00
01F0003F00
01F0003F00
01F0007F00
01F0007E00
01F000FE00
01F001FC00
01F007F800
01FFFFE000
01FFFF0000
01F0000000
01F0000000
01F0000000
01F0000000
01F0000000
01F0000000
01F0000000
01F0000000
01F0000000
01F0000000
01F0000000
01F0000000
01F0000000
03F8000000
3FFFE00000
3FFFE00000
ENDCHAR

STARTCHAR afii10035
ENCODING 193
SWIDTH 694 0
DWIDTH 35 0
BBX 35 39 0 -1
BITMAP
0000FF0000
0007FFF000
001FFFFC00
007E01FE00
00F8007E00
01F0003E00
03E0001F00
07E0000F00
07C0000F00
0FC0000700
0FC0000700
1F80000300
1F80000300
1F80000000
3F80000000
3F00000000
3F00000000
3F00000000
3F00000000
3F00000000
3F00000000
3F00000000
3F00000000
3F00000000
3F00000000
1F80000180
1F80000180
1F80000180
0F80000380
0FC0000300
07C0000700
07E0000700
03F0000E00
01F0001C00
00FC003800
007F01F000
001FFFE000
000FFF8000
0000FC0000
ENDCHAR

STARTCHAR afii10036
ENCODING 194
SWIDTH 688 0
DWIDTH 34 0
BBX 35 37 0 0
BITMAP
3FFFFFFF80
3FFFFFFF80
3FFFFFFF80
3F81F03F80
3E01F00F80
3C01F00780
3C01F00780
3801F00380
3801F00380
3001F00180
7001F001C0
7001F001C0
7001F001C0
7001F001C0
0001F00000
0001F00000
0001F00000
0001F00000
0001F00000
0001F00000
0001F00000
0001F00000
0001F00000
0001F00000
0001F00000
0001F00000
0001F00000
0001F00000
0001F00000
0001F00000
0001F00000
0001F00000
0001F00000
0001F00000
0003F80000
007FFFC000
007FFFC000
ENDCHAR

STARTCHAR afii10037
ENCODING 195
SWIDTH 732 0
DWIDTH 37 0
BBX 39 37 -1 -1
BITMAP
7FFF00FFFC
7FFF00FFFC
0FF0000FE0
07E00007C0
07E0000780
03F0000700
03F0000700
01F8000600
01F8000E00
00FC000C00
00FC001C00
007E001800
007E001800
003E003800
003F003000
001F007000
001F806000
000F80E000
000FC0C000
0007C1C000
0007E18000
0003E38000
0003F30000
0001F70000
0001F60000
0000FE0000
0000FC0000
00007C0000
0380780000
07C0780000
07E0380000
07E0700000
07E0600000
07E0E00000
03FFC00000
01FF800000
003C000000
ENDCHAR

STARTCHAR afii10038
ENCODING 196
SWIDTH 799 0
DWIDTH 40 0
BBX 39 36 0 0
BITMAP
000FFFE000
000FFFE000
0000FE0000
00007C0000
00007C0000
001FFFF000
00FFFFFE00
01F87C1F00
07C07C07C0
0F807C03E0
0F807C01F0
1F007C01F0
3F007C00F8
3E007C00F8
3E007C00F8
3E007C00FC
7E007C00FC
7E007C00FC
7E007C00FC
7E007C00FC
3E007C00FC
3E007C00F8
3E007C00F8
1F007C01F8
1F007C01F0
0F807C03E0
07C07C03C0
03E07C0F80
01FC7C3F00
007FFFFC00
000FFFE000
00007C0000
00007C0000
0000FE0000
000FFFE000
000FFFE000
ENDCHAR

STARTCHAR afii10039
ENCODING 197
SWIDTH 729 0
DWIDTH 36 0
BBX 38 37 -1 0
BITMAP
3FFF83FFF0
3FFF83FFF0
0FFC00FFC0
07F8003F00
03F8003E00
01F8003C00
00FC003800
00FE007000
007E007000
003F00E000
003F81C000
001F83C000
000FC38000
0007E70000
0007FE0000
0003FE0000
0001FC0000
0001FC0000
0000FE0000
00007E0000
0000FF0000
0001FF8000
0003DF8000
00038FC000
000707E000
000F07F000
000E03F000
001C01F800
003801FC00
007800FE00
0070007E00
00F0003F00
01F0003F80
03F0003FC0
0FF8003FE0
3FFF03FFF8
3FFF03FFF8
ENDCHAR

STARTCHAR afii10040
ENCODING 198
SWIDTH 823 0
DWIDTH 41 0
BBX 42 45 0 -9
BITMAP
3FFFC07FFF00
3FFFC07FFF00
03F80007F000
01F00003E000
01F00003E000
01F00003E000
01F00003E000
01F00003E000
01F00003E000
01F00003E000
01F00003E000
01F00003E000
01F00003E000
01F00003E000
01F00003E000
01F00003E000
01F00003E000
01F00003E000
01F00003E000
01F00003E000
01F00003E000
01F00003E000
01F00003E000
01F00003E000
01F00003E000
01F00003E000
01F00003E000
01F00003E000
01F00003E000
01F00003E000
01F00003E000
01F00003F000
01F00003F000
03F00003F800
3FFFFFFFFF00
3FFFFFFFFF00
00000000FF00
000000001F00
000000000F00
000000000700
000000000700
000000000300
000000000300
000000000300
000000000300
ENDCHAR

STARTCHAR afii10041
ENCODING 199
SWIDTH 761 0
DWIDTH 38 0
BBX 40 36 -1 0
BITMAP
3FFFC1FFFC
3FFFC1FFFC
03F8001FC0
01F0000F80
01F0000F80
01F0000F80
01F0000F80
01F0000F80
01F0000F80
01F0000F80
01F0000F80
01F0000F80
01F0000F80
01F0000F80
01F8000F80
01F8000F80
00F8000F80
00FC003F80
007F01FF80
003FFFEF80
001FFF0F80
0007F80F80
0000000F80
0000000F80
0000000F80
0000000F80
0000000F80
0000000F80
0000000F80
0000000F80
0000000F80
0000000F80
0000000F80
0000001FC0
000001FFFC
000001FFFC
ENDCHAR

STARTCHAR afii10042
ENCODING 200
SWIDTH 1073 0
DWIDTH 54 0
BBX 55 36 -1 0
BITMAP
3FFF8FFFE3FFF8
3FFF8FFFE3FFF8
03F800FE003F80
01F0007E001F00
01F0007C001F00
01F0007C001F00
01F0007C001F00
01F0007C001F00
01F0007C001F00
01F0007C001F00
01F0007C001F00
01F0007C001F00
01F0007C001F00
01F0007C001F00
01F0007C001F00
01F0007C001F00
01F0007C001F00
01F0007C001F00
01F0007C001F00
01F0007C001F00
01F0007C001F00
01F0007C001F00
01F0007C001F00
01F0007C001F00
01F0007C001F00
01F0007C001F00
01F0007C001F00
01F0007C001F00
01F0007C001F00
01F0007C001F00
01F0007C001F00
01F0007C001F00
01F0007C001F00
03F0007C001F80
3FFFFFFFFFFFF8
3FFFFFFFFFFFF8
ENDCHAR

STARTCHAR afii10043
ENCODING 201
SWIDTH 1073 0
DWIDTH 54 0
BBX 55 45 -1 -9
BITMAP
3FFF8FFFE3FFF8
3FFF8FFFE3FFF8
03F800FE003F80
01F0007C001F00
01F0007C001F00
01F0007C001F00
01F0007C001F00
01F0007C001F00
01F0007C001F00
01F0007C001F00
01F0007C001F00
01F0007C001F00
01F0007C001F00
01F0007C001F00
01F0007C001F00
01F0007C001F00
01F0007C001F00
01F0007C001F00
01F0007C001F00
01F0007C001F00
01F0007C001F00
01F0007C001F00
01F0007C001F00
01F0007C001F00
01F0007C001F00
01F0007C001F00
01F0007C001F00
01F0007C001F00
01F0007C001F00
01F0007C001F00
01F0007C001F00
01F0007C001F00
01F0007C001F00
07F0007C001F80
3FFFFFFFFFFFF8
3FFFFFFFFFFFF8
000000000003F8
000000000000F8
00000000000078
00000000000038
00000000000038
00000000000018
00000000000018
00000000000018
00000000000018
ENDCHAR

STARTCHAR afii10044
ENCODING 202
SWIDTH 879 0
DWIDTH 44 0
BBX 44 36 0 0
BITMAP
3FFFFF800000
3FFFFF800000
3F81F8000000
3E01F0000000
3C01F0000000
3C01F0000000
3801F0000000
3801F0000000
3001F0000000
3001F0000000
7001F0000000
7001F0000000
0001F0000000
0001F0000000
0001F0000000
0001F0000000
0001F0000000
0001FFFF8000
0001FFFFF000
0001F003FC00
0001F0007F00
0001F0003F80
0001F0001F80
0001F0001FC0
0001F0000FC0
0001F0000FC0
0001F0000FC0
0001F0000FC0
0001F0000FC0
0001F0001FC0
0001F0001F80
0001F0003F80
0001F0007F00
0003F801FE00
003FFFFFF800
003FFFFFC000
ENDCHAR

STARTCHAR afii10045
ENCODING 203
SWIDTH 1042 0
DWIDTH 52 0
BBX 53 36 0 0
BITMAP
3FFF80000FFFE0
3FFF80000FFFE0
03F8000000FE00
01F00000007C00
01F00000007C00
01F00000007C00
01F00000007C00
01F00000007C00
01F00000007C00
01F00000007C00
01F00000007C00
01F00000007C00
01F00000007C00
01F00000007C00
01F00000007C00
01F00000007C00
01FFFF80007C00
01FFFFF0007C00
01F003FC007C00
01F0007E007C00
01F0003F007C00
01F0001F807C00
01F0001FC07C00
01F0000FC07C00
01F0000FC07C00
01F0000FC07C00
01F0000FC07C00
01F0000FC07C00
01F0000FC07C00
01F0001FC07C00
01F0001F807C00
01F0003F807C00
01F0007F007E00
03F801FE00FE00
3FFFFFF80FFFE0
3FFFFFC00FFFE0
ENDCHAR

STARTCHAR afii10046
ENCODING 204
SWIDTH 704 0
DWIDTH 35 0
BBX 36 36 0 0
BITMAP
3FFF800000
3FFF800000
03F8000000
01F0000000
01F0000000
01F0000000
01F0000000
01F0000000
01F0000000
01F0000000
01F0000000
01F0000000
01F0000000
01F0000000
01F0000000
01F0000000
01F0000000
01FFFF8000
01FFFFF000
01F003FC00
01F0007F00
01F0003F00
01F0001F80
01F0001FC0
01F0000FC0
01F0000FC0
01F0000FC0
01F0000FC0
01F0000FC0
01F0001FC0
01F0001F80
01F0003F80
01F0007F00
03F801FE00
3FFFFFF800
3FFFFFC000
ENDCHAR

STARTCHAR afii10047
ENCODING 205
SWIDTH 698 0
DWIDTH 35 0
BBX 35 39 0 -1
BITMAP
007FF80000
03FFFE0000
0FFC1F8000
0FE007C000
0FC003F000
0F8001F000
1F0000F800
1E0000FC00
1E00007C00
1C00007E00
1C00003E00
1800003F00
1800003F00
0000003F00
0000003F80
0000001F80
0000001F80
0000001F80
0007FFFF80
0007FFFF80
0007FFFF80
0000001F80
0000001F80
0000001F80
0000001F80
3000001F80
3000003F00
3800003F00
3800003F00
3800007E00
1C00007E00
1C0000FC00
0E0000F800
070001F000
03C007E000
01F01FC000
00FFFF8000
003FFE0000
0007F00000
ENDCHAR

STARTCHAR afii10048
ENCODING 206
SWIDTH 1104 0
DWIDTH 55 0
BBX 56 39 0 -1
BITMAP
000000003F0000
00000003FFF000
3FFFC00FFFFC00
3FFFC01F807E00
03F8003E001F00
01F0007C000F80
01F000F80007C0
01F001F80007E0
01F003F00003E0
01F003F00003F0
01F007E00001F0
01F007E00001F8
01F007E00001F8
01F00FE00001F8
01F00FE00000FC
01F00FC00000FC
01F00FC00000FC
01F00FC00000FC
01FFFFC00000FC
01FFFFC00000FC
01FFFFC00000FC
01F00FC00000FC
01F00FC00000FC
01F00FC00000FC
01F00FE00000FC
01F007E00001F8
01F007E00001F8
01F007E00001F8
01F003F00001F0
01F003F00003F0
01F001F00003E0
01F001F80007E0
01F000F80007C0
01F0007C000F80
01F0003E001F00
03F8001F807E00
3FFFC00FFFF800
3FFFC003FFE000
000000003F0000
ENDCHAR

STARTCHAR afii10049
ENCODING 207
SWIDTH 729 0
DWIDTH 36 0
BBX 38 36 -1 0
BITMAP
0007FFFFF0
001FFFFFF0
007F007F00
00FC003E00
01F8003E00
01F8003E00
03F0003E00
03F0003E00
03F0003E00
03F0003E00
03F0003E00
03F0003E00
01F8003E00
01F8003E00
00FC003E00
007E003E00
003F803E00
000FFFFE00
0000FFFE00
0003E03E00
0007C03E00
000F803E00
001F803E00
001F003E00
003F003E00
003E003E00
007E003E00
007C003E00
00FC003E00
01F8003E00
01F8003E00
03F0003E00
03F0003E00
0FE0007F00
3FC007FFF0
3FC007FFF0
ENDCHAR

STARTCHAR afii10065
ENCODING 208
SWIDTH 563 0
DWIDTH 28 0
BBX 28 29 1 -1
BITMAP
00FF8000
03FFE000
07C1F000
0F80F800
1F007C00
1F007C00
3F007C00
3F007C00
1E007C00
0C007C00
00007C00
0001FC00
001FFC00
00FFFC00
03FC7C00
0FC07C00
1F007C00
3E007C00
3E007C00
7C007C00
7C007C00
7C007C00
7C00FC00
7C01FC00
7E03BC00
3F0F3E00
1FFE1FC0
0FFC0FC0
03E00780
ENDCHAR

STARTCHAR afii10066
ENCODING 209
SWIDTH 567 0
DWIDTH 28 0
BBX 28 39 1 -1
BITMAP
00000180
00000780
003FFF80
00FFFF00
01FFFE00
03FFF800
07C00000
0F000000
0E000000
1C000000
18000000
181FC000
307FF000
31F0FC00
33C03E00
33801F00
37001F00
7F000F80
6F000F80
7E000FC0
7E0007C0
7E0007C0
7E0007C0
7E0007C0
7E0007C0
3E0007C0
3E0007C0
3E0007C0
3E0007C0
3E000780
1E000F80
1F000F80
0F000F00
0F801E00
07C03E00
03E07C00
01FFF800
00FFE000
001F0000
ENDCHAR

STARTCHAR afii10067
ENCODING 210
SWIDTH 559 0
DWIDTH 28 0
BBX 28 27 0 0
BITMAP
7FFFF000
7FFFFE00
0FE07F00
07C01F00
07C01F80
07C00F80
07C00F80
07C00F80
07C00F80
07C01F00
07C01E00
07C07800
07FFC000
07FFFC00
07C03F00
07C00F80
07C00FC0
07C007C0
07C007C0
07C007C0
07C007C0
07C007C0
07C00FC0
07C01F80
0FE07F00
7FFFFE00
7FFFF000
ENDCHAR

STARTCHAR afii10068
ENCODING 211
SWIDTH 504 0
DWIDTH 25 0
BBX 27 27 -1 0
BITMAP
3FFFFF80
3FFFFF80
07F01F80
03E00780
03E00380
03E00380
03E00180
03E00180
03E001C0
03E00000
03E00000
03E00000
03E00000
03E00000
03E00000
03E00000
03E00000
03E00000
03E00000
03E00000
03E00000
03E00000
03E00000
03E00000
07F00000
3FFE0000
3FFE0000
ENDCHAR

STARTCHAR afii10069
ENCODING 212
SWIDTH 616 0
DWIDTH 31 0
BBX 33 34 -1 -7
BITMAP
01FFFFFE00
01FFFFFE00
007E03F000
003C03E000
001C03E000
001C03E000
001C03E000
001C03E000
001803E000
001803E000
001803E000
001803E000
001803E000
003803E000
003003E000
003003E000
003003E000
007003E000
006003E000
00E003E000
00E003E000
01C003E000
018003E000
038003E000
0E0007F000
3FFFFFFE00
3FFFFFFE00
3C00003E00
3800000E00
3000000E00
3000000600
3000000600
3000000600
3000000600
ENDCHAR

STARTCHAR afii10070
ENCODING 213
SWIDTH 513 0
DWIDTH 26 0
BBX 27 29 -1 -1
BITMAP
001F8000
00FFE000
01FFF800
03E0FC00
07C03C00
0F803E00
0F001F00
1F001F00
1F000F00
1F000F80
3E000F80
3E000F80
3E000F80
3FFFFF80
3FFFFF80
3E000000
3E000000
3E000000
3E000000
3F000000
1F000000
1F000380
0F800700
0F800F00
07C01E00
03F07C00
01FFF800
00FFE000
001F8000
ENDCHAR

STARTCHAR afii10072
ENCODING 214
SWIDTH 844 0
DWIDTH 42 0
BBX 45 27 -1 0
BITMAP
0F80FFF80F80
1FC0FFF81FC0
1FE01FC03FC0
1FE00F803FC0
0F700F807780
00300F806000
00380F80E000
00180F80C000
00180F80C000
000C0F818000
000C0F818000
00060F830000
0003FFFE0000
000FFFFF8000
001F8F8FC000
003F0F87E000
003E0F83E000
007C0F81F000
007C0F81F000
00F80F80F800
01F80F80FC00
01F00F807C00
03F00F807E00
07E00F803F00
0FE01FC03F80
3FC0FFF81FE0
3F80FFF80FE0
ENDCHAR

STARTCHAR afii10073
ENCODING 215
SWIDTH 479 0
DWIDTH 24 0
BBX 25 28 0 -1
BITMAP
007E0000
03FFC000
0FFFF000
0F81F800
0E007800
1E007C00
1C007C00
1C007C00
1C007C00
18007800
0000F000
0001E000
00FFC000
00FF0000
007FE000
0003F800
0000FC00
00007C00
18007E00
3C003E00
7E003E00
7E003E00
7E003E00
3E007C00
3E00FC00
1F01F000
0FFFE000
01FF0000
ENDCHAR

STARTCHAR afii10074
ENCODING 216
SWIDTH 646 0
DWIDTH 32 0
BBX 34 27 -1 0
BITMAP
3FFE1FFF00
3FFE1FFF00
07F003F800
03E001F000
03E001F000
03E003F000
03E003F000
03E007F000
03E00FF000
03E01DF000
03E039F000
03E071F000
03E061F000
03E0E1F000
03E1C1F000
03E381F000
03E701F000
03EE01F000
03EC01F000
03F801F000
03F801F000
03F001F000
03E001F000
03E001F000
07F003F800
3FFE1FFF00
3FFE1FFF00
ENDCHAR

STARTCHAR afii10075
ENCODING 217
SWIDTH 646 0
DWIDTH 32 0
BBX 34 38 -1 0
BITMAP
0008030000
003C078000
003C078000
003C078000
003C078000
001E070000
000FFE0000
0003F80000
0000000000
0000000000
0000000000
3FFE1FFF00
3FFE1FFF00
07F003F800
03E001F000
03E001F000
03E003F000
03E003F000
03E007F000
03E00FF000
03E01DF000
03E039F000
03E071F000
03E061F000
03E0E1F000
03E1C1F000
03E381F000
03E701F000
03EE01F000
03EC01F000
03F801F000
03F801F000
03F001F000
03E001F000
03E001F000
07F003F800
3FFE1FFF00
3FFE1FFF00
ENDCHAR

STARTCHAR afii10076
ENCODING 218
SWIDTH 602 0
DWIDTH 30 0
BBX 31 27 0 0
BITMAP
7FFC03E0
7FFC07F0
0FE007F0
07C00FF0
07C00CF0
07C01C00
07C01800
07C01800
07C03000
07C03000
07C07000
07C0E000
07FFC000
07FFE000
07CFF000
07C1F800
07C0F800
07C07C00
07C07E00
07C03E00
07C03F00
07C01F80
07C00F80
07C00FC0
0FE007E0
7FFC07F8
7FFC03F8
ENDCHAR

STARTCHAR afii10077
ENCODING 219
SWIDTH 639 0
DWIDTH 32 0
BBX 34 28 -1 -1
BITMAP
01FFFFFF00
01FFFFFF00
007F01F800
003C01F000
001C01F000
001C01F000
001C01F000
001C01F000
001C01F000
001C01F000
001801F000
001801F000
001801F000
001801F000
001801F000
001801F000
001801F000
003801F000
003801F000
003001F000
003001F000
003001F000
383001F000
3C6001F000
7CE003F800
7FC01FFF00
3FC01FFF00
1F00000000
ENDCHAR

STARTCHAR afii10078
ENCODING 220
SWIDTH 784 0
DWIDTH 39 0
BBX 40 27 -1 0
BITMAP
3FF8000FFE
3FF8000FFE
07FC000FF0
037C001BE0
037C001BE0
033E003BE0
033E0033E0
033E0033E0
031F0063E0
031F0063E0
031F80E3E0
030F80C3E0
030F80C3E0
0307C183E0
0307C183E0
0307C383E0
0303E303E0
0303E303E0
0303F603E0
0301F603E0
0301FE03E0
0301FC03E0
0300FC03E0
0300F803E0
07807807F0
3FF0783FFE
3FF0703FFE
ENDCHAR

STARTCHAR afii10079
ENCODING 221
SWIDTH 646 0
DWIDTH 32 0
BBX 34 27 -1 0
BITMAP
3FFE1FFF00
3FFE1FFF00
07F003F800
03E001F000
03E001F000
03E001F000
03E001F000
03E001F000
03E001F000
03E001F000
03E001F000
03E001F000
03FFFFF000
03FFFFF000
03E001F000
03E001F000
03E001F000
03E001F000
03E001F000
03E001F000
03E001F000
03E001F000
03E001F000
03E001F000
07F003F800
3FFE1FFF00
3FFE1FFF00
ENDCHAR

STARTCHAR afii10080
ENCODING 222
SWIDTH 548 0
DWIDTH 27 0
BBX 28 29 0 -1
BITMAP
003FC000
00FFF000
01F0FC00
03C03E00
07801E00
0F801F00
0F000F80
1F000F80
1F000F80
1F0007C0
3E0007C0
3E0007C0
3E0007C0
3E0007C0
3E0007C0
3E0007C0
3E0007C0
3E0007C0
3E0007C0
1F0007C0
1F000F80
1F000F80
0F000F00
0F801F00
07801E00
03C03C00
01F0F800
00FFF000
003FC000
ENDCHAR

STARTCHAR afii10081
ENCODING 223
SWIDTH 646 0
DWIDTH 32 0
BBX 34 27 -1 0
BITMAP
3FFFFFFF00
3FFFFFFF00
07F003F800
03E001F000
03E001F000
03E001F000
03E001F000
03E001F000
03E001F000
03E001F000
03E001F000
03E001F000
03E001F000
03E001F000
03E001F000
03E001F000
03E001F000
03E001F000
03E001F000
03E001F000
03E001F000
03E001F000
03E001F000
03E001F000
07F003F800
3FFE1FFF00
3FFE1FFF00
ENDCHAR

STARTCHAR afii10082
ENCODING 224
SWIDTH 594 0
DWIDTH 30 0
BBX 31 37 -1 -9
BITMAP
07C07800
3FC1FE00
3FC7FF80
03EE0FC0
03FC07E0
03F803E0
03F001F0
03E001F0
03E001F8
03E001F8
03E000F8
03E000F8
03E000F8
03E000F8
03E000F8
03E000F8
03E000F8
03E000F8
03E000F8
03E001F0
03E001F0
03F001F0
03F803E0
03FC03E0
03EE0FC0
03E7FF80
03E3FF00
03E07800
03E00000
03E00000
03E00000
03E00000
03E00000
03E00000
07F00000
3FFF8000
3FFF8000
ENDCHAR

STARTCHAR afii10083
ENCODING 225
SWIDTH 500 0
DWIDTH 25 0
BBX 26 29 -1 -1
BITMAP
001FE000
00FFF800
01F0FC00
03E03E00
07C03E00
0F803F00
0F003F00
1F003F00
1F003F00
1F003E00
3E000000
3E000000
3E000000
3E000000
3E000000
3E000000
3E000000
3E000000
3E000000
3F000000
1F000300
1F000700
0F800600
0F800E00
07C01C00
03F07800
01FFF000
00FFE000
001F8000
ENDCHAR

STARTCHAR afii10084
ENCODING 226
SWIDTH 552 0
DWIDTH 28 0
BBX 29 27 -1 0
BITMAP
3FFFFFE0
3FFFFFE0
3F0F87E0
3C0F81E0
380F80E0
380F80E0
300F8060
300F8070
300F8070
000F8000
000F8000
000F8000
000F8000
000F8000
000F8000
000F8000
000F8000
000F8000
000F8000
000F8000
000F8000
000F8000
000F8000
000F8000
001FC000
00FFF800
00FFF800
ENDCHAR

STARTCHAR afii10085
ENCODING 227
SWIDTH 573 0
DWIDTH 29 0
BBX 31 36 -1 -9
BITMAP
3FFC1FF8
3FFC1FF8
0FE003E0
07C001C0
07C00180
03E00380
03E00380
01F00300
01F00700
00F80600
00F80600
00F80E00
007C0C00
007C1C00
003E1800
003E1800
001E3800
001F3000
001F3000
000FF000
000FE000
0007E000
0007C000
0007C000
0003C000
00038000
00018000
00030000
00030000
0E070000
1F060000
1F0E0000
1F1C0000
1FF80000
0FF00000
03C00000
ENDCHAR

STARTCHAR afii10086
ENCODING 228
SWIDTH 746 0
DWIDTH 37 0
BBX 37 46 0 -8
BITMAP
000FFF8000
000FFF8000
0001FC0000
0000F80000
0000F80000
0000F80000
0000F80000
0000F80000
0000F80000
0000F80000
0000F80000
01F8F8FC00
03FCF9FF00
0FFEFBFF80
0F87FF0F80
1F01FE07C0
1E01FC03C0
3E00F803E0
3E00F801E0
3C00F801E0
7C00F801F0
7C00F801F0
7C00F801F0
7C00F801F0
7C00F801F0
7C00F801F0
7C00F801F0
7C00F801F0
7C00F801F0
3C00F801E0
3E00F801E0
3E00F803E0
1E01FC03C0
1F03FE07C0
0F87FF0F80
07FEFBFF80
03FCF9FE00
00F8F87C00
0000F80000
0000F80000
0000F80000
0000F80000
0000F80000
0001FC0000
000FFF8000
000FFF8000
ENDCHAR

STARTCHAR afii10087
ENCODING 229
SWIDTH 583 0
DWIDTH 29 0
BBX 30 27 0 0
BITMAP
7FF87FE0
7FF87FE0
1FC00F80
07C00F00
07E00E00
03E01C00
01F03800
00F83000
00FC7000
007CE000
003FC000
003F8000
001F8000
000F8000
000FC000
001FE000
003BF000
0031F000
0060F800
00E0FC00
01C07C00
01803E00
03001F00
07001F80
1F801FC0
7FF0FFF0
7FF0FFF0
ENDCHAR

STARTCHAR afii10088
ENCODING 230
SWIDTH 646 0
DWIDTH 32 0
BBX 34 34 -1 -7
BITMAP
3FFE1FFF00
3FFE1FFF00
07F003F800
03E001F000
03E001F000
03E001F000
03E001F000
03E001F000
03E001F000
03E001F000
03E001F000
03E001F000
03E001F000
03E001F000
03E001F000
03E001F000
03E001F000
03E001F000
03E001F000
03E001F000
03E001F000
03E001F000
03E001F000
03E001F000
07E001F800
3FFFFFFF00
3FFFFFFF00
0000001F00
0000000700
0000000700
0000000300
0000000300
0000000300
0000000300
ENDCHAR

STARTCHAR afii10089
ENCODING 231
SWIDTH 625 0
DWIDTH 31 0
BBX 33 27 -1 0
BITMAP
3FFE1FFE00
3FFE1FFE00
07F007F000
03E003E000
03E003E000
03E003E000
03E003E000
03E003E000
03E003E000
03E003E000
03E003E000
03E007E000
01F00FE000
01F83FE000
01FFFBE000
00FFE3E000
003F83E000
000003E000
000003E000
000003E000
000003E000
000003E000
000003E000
000003E000
000007F000
00003FFE00
00003FFE00
ENDCHAR

STARTCHAR afii10090
ENCODING 232
SWIDTH 927 0
DWIDTH 46 0
BBX 47 27 0 0
BITMAP
7FFC7FF87FF8
7FFC7FF87FF8
0FE00FC01FC0
07C007C00F80
07C007C00F80
07C007C00F80
07C007C00F80
07C007C00F80
07C007C00F80
07C007C00F80
07C007C00F80
07C007C00F80
07C007C00F80
07C007C00F80
07C007C00F80
07C007C00F80
07C007C00F80
07C007C00F80
07C007C00F80
07C007C00F80
07C007C00F80
07C007C00F80
07C007C00F80
07C007C00F80
0FC007C00FC0
7FFFFFFFFFF8
7FFFFFFFFFF8
ENDCHAR

STARTCHAR afii10091
ENCODING 233
SWIDTH 927 0
DWIDTH 46 0
BBX 47 34 0 -7
BITMAP
7FFC7FF87FF8
7FFC7FF87FF8
0FE00FC01FC0
07C007C00F80
07C007C00F80
07C007C00F80
07C007C00F80
07C007C00F80
07C007C00F80
07C007C00F80
07C007C00F80
07C007C00F80
07C007C00F80
07C007C00F80
07C007C00F80
07C007C00F80
07C007C00F80
07C007C00F80
07C007C00F80
07C007C00F80
07C007C00F80
07C007C00F80
07C007C00F80
07C007C00F80
0FC007C00FC0
7FFFFFFFFFF8
7FFFFFFFFFF8
0000000000F8
000000000078
000000000038
000000000018
000000000018
000000000018
000000000018
ENDCHAR

STARTCHAR afii10092
ENCODING 234
SWIDTH 695 0
DWIDTH 35 0
BBX 35 27 -1 0
BITMAP
3FFFF80000
3FFFF80000
3F0FC00000
3C0F800000
380F800000
380F800000
300F800000
300F800000
700F800000
000F800000
000F800000
000FFFF000
000FFFFE00
000F80FF00
000F803F80
000F801F80
000F800FC0
000F800FC0
000F800FC0
000F800FC0
000F800FC0
000F800F80
000F801F80
000F803F00
001FC0FE00
00FFFFFC00
00FFFFF000
ENDCHAR

STARTCHAR afii10093
ENCODING 235
SWIDTH 833 0
DWIDTH 42 0
BBX 43 27 0 0
BITMAP
7FFC000FFF80
7FFC000FFF80
0FE00001FC00
07C00000F800
07C00000F800
07C00000F800
07C00000F800
07C00000F800
07C00000F800
07C00000F800
07C00000F800
07C00000F800
07FFFC00F800
07FFFF00F800
07C07F80F800
07C01FC0F800
07C00FC0F800
07C007E0F800
07C007E0F800
07C007E0F800
07C007E0F800
07C007E0F800
07C007C0F800
07C00FC0F800
0FE03F81FC00
7FFFFE0FFF80
7FFFF80FFF80
ENDCHAR

STARTCHAR afii10094
ENCODING 236
SWIDTH 565 0
DWIDTH 28 0
BBX 28 27 0 0
BITMAP
7FFC0000
7FFC0000
0FE00000
07C00000
07C00000
07C00000
07C00000
07C00000
07C00000
07C00000
07C00000
07FFF800
07FFFF00
07C07F80
07C01FC0
07C00FC0
07C007E0
07C007E0
07C007E0
07C007E0
07C007E0
07C007C0
07C00FC0
07C00F80
0FE03F00
7FFFFE00
7FFFF800
ENDCHAR

STARTCHAR afii10095
ENCODING 237
SWIDTH 490 0
DWIDTH 24 0
BBX 26 29 -1 -1
BITMAP
007E0000
03FF8000
0FFFE000
1F01F000
1E00F800
1C007C00
1C007C00
1C003E00
18003E00
18003F00
00001F00
00001F00
00001F00
003FFF00
003FFF00
00001F00
00001F00
00001F00
00001F00
1E001F00
3E003E00
3E003E00
3E003E00
3E007C00
3E00F800
1F01F000
0FFFE000
03FFC000
007C0000
ENDCHAR

STARTCHAR afii10096
ENCODING 238
SWIDTH 833 0
DWIDTH 42 0
BBX 43 28 -1 -1
BITMAP
3FFE007F8000
3FFE01FFE000
07F007E1F800
03E00F807C00
03E01F003E00
03E01E003E00
03E03E001F00
03E03E001F00
03E07C001F80
03E07C000F80
03E07C000F80
03E07C000F80
03FFFC000F80
03FFFC000F80
03E07C000F80
03E07C000F80
03E07C000F80
03E07C000F80
03E07C001F80
03E03E001F00
03E03E001F00
03E01E001E00
03E01F003E00
03E00F807C00
07F007C0F800
3FFE03FFF000
3FFE00FFC000
0000003E0000
ENDCHAR

STARTCHAR afii10097
ENCODING 239
SWIDTH 577 0
DWIDTH 29 0
BBX 30 26 -1 0
BITMAP
003FFFF0
00FFFFF0
01F81F80
03E01F00
07E01F00
07C01F00
07C01F00
07C01F00
07C01F00
07E01F00
03E01F00
01F81F00
00FFFF00
000FFF00
007C1F00
00781F00
00F81F00
00F01F00
01F01F00
01E01F00
03E01F00
03C01F00
07C01F00
0FC01F80
7F81FFF0
7F81FFF0
ENDCHAR

STARTCHAR afii61352
ENCODING 240
SWIDTH 1053 0
DWIDTH 53 0
BBX 54 39 -1 -1
BITMAP
000000003C0000
00000000FE0000
0FFC0000FF0000
0FFE0001FF0000
00FE0001FF0000
007F00038F0000
007F0003800000
007F8003800000
007F8003800000
007FC003800000
0077E003807E00
0077E00381FF80
0073F00383C3C0
0073F0038781C0
0071F8038F01E0
0070FC038F01E0
0070FC038E00F0
00707E039E00F0
00707E039E00F0
00703F039E00F0
00703F839E00F0
00701F839E00F0
00700FC39E00F0
00700FC38E00F0
007007E38F01E0
007007E38F01E0
007003F38701C0
007003FB838380
007001FB81FF00
007000FF807C00
007000FF800000
0070007F800000
1C70007F800000
3E70003F800000
3FE0003F800000
3FE0001F83FF00
3FE0000F83FF00
1FC0000F83FF00
0F000007800000
ENDCHAR

STARTCHAR afii10071
ENCODING 241
SWIDTH 513 0
DWIDTH 26 0
BBX 26 36 0 -1
BITMAP
03C03C00
03E07E00
07E07E00
07E07E00
03C03C00
00000000
00000000
00000000
001F0000
00FFC000
01FFF000
07C0F800
07807C00
0F803C00
1F003E00
1F001E00
1E001F00
3E001F00
3E001F00
3E001F00
3FFFFF00
3FFFFF00
3E000000
3E000000
3E000000
3E000000
3E000000
1F000000
1F000700
0F000E00
0F800E00
07C03C00
03E07800
01FFF000
00FFC000
003F0000
ENDCHAR

STARTCHAR afii10099
ENCODING 242
SWIDTH 574 0
DWIDTH 29 0
BBX 29 47 0 -9
BITMAP
1FC00000
7FC00000
1FC00000
07C00000
07C00000
07C00000
7FFFFC00
7FFFFC00
07C00000
07C00000
07C00000
07C1F000
07C7FC00
07CFFE00
07DFFF00
07FC1F80
07F00F80
07E00FC0
07E007C0
07C007C0
07C007C0
07C007E0
07C003E0
07C003E0
07C003E0
07C003E0
07C003E0
07C003E0
07C003E0
07C003E0
07C003E0
07C003E0
07C003E0
07C003C0
07C007C0
0FE007C0
7FFC07C0
7FFC0780
00000F80
00000F00
00001E00
00003E00
00007C00
0000F800
000FF000
000FC000
000E0000
ENDCHAR

STARTCHAR afii10100
ENCODING 243
SWIDTH 504 0
DWIDTH 25 0
BBX 27 38 -1 0
BITMAP
00002000
0000F000
0001F000
0007F000
000FE000
001F0000
00380000
00600000
00000000
00000000
00000000
3FFFFF80
3FFFFF80
07F01F80
03E00780
03E00380
03E00380
03E00180
03E00180
03E001C0
03E00000
03E00000
03E00000
03E00000
03E00000
03E00000
03E00000
03E00000
03E00000
03E00000
03E00000
03E00000
03E00000
03E00000
03E00000
07F00000
3FFE0000
3FFE0000
ENDCHAR

STARTCHAR afii10101
ENCODING 244
SWIDTH 500 0
DWIDTH 25 0
BBX 26 28 -1 -1
BITMAP
000F8000
007FF000
01FFFC00
03E07E00
07C03E00
0F803F00
0F803F00
1F003F00
1F003F00
1F001E00
3F000C00
3E000000
3E000000
3FFF0000
3FFF0000
3E000000
3E000000
3E000000
3E000000
1F000000
1F000380
1F000700
0F800E00
07C01E00
07E03C00
01FFF800
00FFE000
001F8000
ENDCHAR

STARTCHAR afii10102
ENCODING 245
SWIDTH 458 0
DWIDTH 23 0
BBX 23 29 0 -1
BITMAP
00FF00
03FFE0
0787F0
0E01F0
1E00F0
1C0070
3C0070
3C0030
3C0030
3E0000
1F8000
1FE000
1FFE00
0FFF80
07FFE0
01FFF0
003FF8
0007F8
0001FC
30007C
30003C
30003C
38003C
380038
3C0078
3F0070
3FC3F0
1FFFC0
03FF00
ENDCHAR

STARTCHAR afii10103
ENCODING 246
SWIDTH 354 0
DWIDTH 18 0
BBX 17 36 1 0
BITMAP
03C000
07E000
07E000
07E000
07E000
03C000
000000
000000
000000
7FE000
7FE000
7FE000
07E000
03E000
03E000
03E000
03E000
03E000
03E000
03E000
03E000
03E000
03E000
03E000
03E000
03E000
03E000
03E000
03E000
03E000
03E000
03E000
03E000
07F000
7FFF00
7FFF00
ENDCHAR

STARTCHAR afii10104
ENCODING 247
SWIDTH 354 0
DWIDTH 18 0
BBX 19 35 -1 0
BITMAP
3C0780
7E0FC0
7E0FC0
7E0FC0
3C0780
000000
000000
000000
1FF800
1FF800
03F800
00F800
00F800
00F800
00F800
00F800
00F800
00F800
00F800
00F800
00F800
00F800
00F800
00F800
00F800
00F800
00F800
00F800
00F800
00F800
00F800
00F800
01FC00
1FFFC0
1FFFC0
ENDCHAR

STARTCHAR afii10105
ENCODING 248
SWIDTH 323 0
DWIDTH 16 0
BBX 18 45 -4 -9
BITMAP
001E00
003F00
003F00
003F00
003F00
001E00
000000
000000
000000
01FF00
03FF00
03FF00
003F00
001F00
001F00
001F00
001F00
001F00
001F00
001F00
001F00
001F00
001F00
001F00
001F00
001F00
001F00
001F00
001F00
001F00
001F00
001F00
001F00
001F00
001F00
001F00
001F00
001E00
001E00
3C1E00
3E1C00
3F3C00
3FF800
1FE000
078000
ENDCHAR

STARTCHAR afii10106
ENCODING 249
SWIDTH 887 0
DWIDTH 44 0
BBX 45 28 -1 -1
BITMAP
01FFFFFF0000
01FFFFFF0000
007F01F80000
001E01F00000
001C01F00000
001C01F00000
001C01F00000
001C01F00000
001C01F00000
001C01F00000
001C01F00000
001C01F00000
001801FFFE00
001801FFFF80
001801F01FC0
001801F007E0
001801F007E0
001801F003F0
001801F003F0
003801F003F0
003001F003F0
003001F003F0
183001F003E0
3C7001F007E0
3E6003F81FC0
3FE01FFFFF80
3FC01FFFFC00
1F0000000000
ENDCHAR

STARTCHAR afii10107
ENCODING 250
SWIDTH 888 0
DWIDTH 44 0
BBX 45 26 -1 0
BITMAP
3FFE1FFF0000
3FFE1FFF0000
07F003F00000
03E001F00000
03E001F00000
03E001F00000
03E001F00000
03E001F00000
03E001F00000
03E001F00000
03E001F00000
03FFFFFFFC00
03FFFFFFFF80
03E001F01FC0
03E001F007E0
03E001F007E0
03E001F003F0
03E001F003F0
03E001F003F0
03E001F003F0
03E001F003F0
03E001F003E0
03E001F007E0
03F001F81FC0
3FFE1FFFFF00
3FFE1FFFFC00
ENDCHAR

STARTCHAR afii10108
ENCODING 251
SWIDTH 635 0
DWIDTH 32 0
BBX 33 38 0 0
BITMAP
3FC0000000
7FC0000000
7FC0000000
07C0000000
07C0000000
07C0000000
7FFFFC0000
7FFFFC0000
07C0000000
07C0000000
07C0180000
07C1FF0000
07C3FF8000
07CFFF8000
07DE0FC000
07F807C000
07F003E000
07E003E000
07C003E000
07C003E000
07C003E000
07C003E000
07C003E000
07C003E000
07C003E000
07C003E000
07C003E000
07C003E000
07C003E000
07C003E000
07C003E000
07C003E000
07C003E000
07C003E000
07C003E000
0FE007F000
7FFC3FFE00
7FFC3FFE00
ENDCHAR

STARTCHAR afii10109
ENCODING 252
SWIDTH 602 0
DWIDTH 30 0
BBX 31 37 0 0
BITMAP
00001E00
00003E00
00007E00
0001FC00
0003F000
00078000
001C0000
00000000
00000000
00000000
7FFC03E0
7FFC07F0
0FE007F0
07C00FF0
07C00CF0
07C01C00
07C01800
07C01800
07C03000
07C03000
07C07000
07C0E000
07FFC000
07FFE000
07CFF000
07C1F800
07C0F800
07C07C00
07C07E00
07C03E00
07C03F00
07C01F80
07C00F80
07C00FC0
0FE007E0
7FFC07F8
7FFC03F8
ENDCHAR

STARTCHAR section
ENCODING 253
SWIDTH 490 0
DWIDTH 24 0
BBX 23 47 1 -9
BITMAP
00FF00
03FFC0
07C7E0
0F01F0
0F01F0
1E01F0
1E01F0
1E01F0
1F01E0
1F0000
1F8000
0FC000
0FF000
07F800
03FE00
07FF00
0E7F80
1C3FC0
3C1FE0
3807F0
7803F8
7801F8
7800FC
7C007C
7E003C
3F003C
3F803C
1FC038
0FF038
07F870
03FEE0
01FFC0
007F80
003FC0
001FE0
0007F0
0003F0
0001F0
0F01F0
1F00F0
1F00F0
1F00F0
1F00E0
1F01E0
0FC7C0
07FF80
01FE00
ENDCHAR

STARTCHAR afii10110
ENCODING 254
SWIDTH 573 0
DWIDTH 29 0
BBX 31 47 -1 -9
BITMAP
00100600
00780F00
00780F00
00780F00
00780F00
003C0E00
001FFC00
0007F000
00000000
00000000
00000000
3FFC1FF8
3FFC1FF8
0FE003E0
07E001C0
03E00180
03E00380
01F00380
01F00300
01F00700
00F80600
00F80600
007C0E00
007C0C00
003C0C00
003E1C00
003E1800
001F3800
001F3000
000F3000
000FF000
000FE000
0007E000
0007E000
0003C000
0003C000
00018000
00018000
00038000
00030000
0F070000
0F860000
1F8E0000
1F9C0000
0FF80000
07F00000
01C00000
ENDCHAR

STARTCHAR afii10193
ENCODING 255
SWIDTH 646 0
DWIDTH 32 0
BBX 34 34 -1 -7
BITMAP
3FFE1FFF00
3FFE1FFF00
07F003F800
03E001F000
03E001F000
03E001F000
03E001F000
03E001F000
03E001F000
03E001F000
03E001F000
03E001F000
03E001F000
03E001F000
03E001F000
03E001F000
03E001F000
03E001F000
03E001F000
03E001F000
03E001F000
03E001F000
03E001F000
03E001F000
07F003F800
3FFFFFFF00
3FFFFFFF00
0007F80000
0001E00000
0001E00000
0000C00000
0000C00000
0000C00000
0000C00000
ENDCHAR
ENDFONT
